<?xml version="1.0" encoding="UTF-8"?> <svg xmlns="http://www.w3.org/2000/svg" xmlns:xlink="http://www.w3.org/1999/xlink" width="45px" height="45px" viewBox="0 0 45 45" version="1.1"><!-- Generator: Sketch 52.6 (67491) - http://www.bohemiancoding.com/sketch --><title>Group 10</title><desc>Created with Sketch.</desc><g id="Final-Homepage-+-Styles" stroke="none" stroke-width="1" fill="none" fill-rule="evenodd"><g id="Homepage-2.0" transform="translate(-455.000000, -3032.000000)"><g id="Group-23" transform="translate(452.000000, 3032.000000)"><g id="Group-10" transform="translate(3.000000, 0.000000)"><circle id="Oval" fill="#FFFFFF" cx="22.325" cy="22.325" r="22.325"></circle><path d="M28.5771542,29.5918727 C29.3737051,29.5918727 30.0199633,28.9456145 30.0199633,28.1490636 L30.0199633,17.5684639 C30.0199633,16.771913 29.3737051,16.1256548 28.5771542,16.1256548 L16.0728091,16.1256548 C15.2762582,16.1256548 14.63,16.771913 14.63,17.5684639 L14.63,28.1490636 C14.63,28.9456145 15.2762582,29.5918727 16.0728091,29.5918727 L28.5771542,29.5918727 Z M17.5156181,19.0112729 L15.5918727,19.0112729 L15.5918727,17.5684639 C15.5918727,17.3039547 15.8082999,17.0875275 16.0728091,17.0875275 L17.5156181,17.0875275 L17.5156181,19.0112729 Z M29.0580906,19.0112729 L18.4774908,19.0112729 L18.4774908,17.0875275 L28.5771542,17.0875275 C28.8416634,17.0875275 29.0580906,17.3039547 29.0580906,17.5684639 L29.0580906,19.0112729 Z M28.5771542,28.63 L16.0728091,28.63 C15.8082999,28.63 15.5918727,28.4135728 15.5918727,28.1490636 L15.5918727,19.9731456 L29.0580906,19.9731456 L29.0580906,28.1490636 C29.0580906,28.4135728 28.8416634,28.63 28.5771542,28.63 Z" id="B" fill="#768DAD" fill-rule="nonzero"></path></g></g></g></g></svg> 