<?xml version="1.0" encoding="UTF-8"?> <svg xmlns="http://www.w3.org/2000/svg" xmlns:xlink="http://www.w3.org/1999/xlink" width="178px" height="148px" viewBox="0 0 178 148" version="1.1"><!-- Generator: Sketch 52.6 (67491) - http://www.bohemiancoding.com/sketch --><title>homepage_AR</title><desc>Created with Sketch.</desc><defs><linearGradient x1="11.5137161%" y1="77.8656306%" x2="104.090624%" y2="10.8879319%" id="linearGradient-1"><stop stop-color="#F4BD43" offset="0%"></stop><stop stop-color="#EA4969" offset="100%"></stop></linearGradient><linearGradient x1="82.5959693%" y1="50.6645427%" x2="-13.8771593%" y2="24.4025081%" id="linearGradient-2"><stop stop-color="#F4BD43" offset="0%"></stop><stop stop-color="#EA4969" offset="100%"></stop></linearGradient><linearGradient x1="3.81207265%" y1="-4.67188467%" x2="103.330556%" y2="66.5911977%" id="linearGradient-3"><stop stop-color="#F97062" offset="0%"></stop><stop stop-color="#FFA15D" offset="100%"></stop></linearGradient><linearGradient x1="51.2550143%" y1="105.662043%" x2="45.9312321%" y2="-81.8411097%" id="linearGradient-4"><stop stop-color="#F97062" offset="0%"></stop><stop stop-color="#FFA15D" offset="100%"></stop></linearGradient><linearGradient x1="0%" y1="49.9885452%" x2="99.9956083%" y2="49.9885452%" id="linearGradient-5"><stop stop-color="#6ADFFC" offset="0%"></stop><stop stop-color="#05C2F0" offset="100%"></stop></linearGradient><linearGradient x1="0.018492834%" y1="49.9921073%" x2="99.9953768%" y2="49.9921073%" id="linearGradient-6"><stop stop-color="#6ADFFC" offset="0%"></stop><stop stop-color="#05C2F0" offset="100%"></stop></linearGradient><linearGradient x1="8.48484848%" y1="10.1641414%" x2="114.191919%" y2="111.641414%" id="linearGradient-7"><stop stop-color="#6ADFFC" offset="0%"></stop><stop stop-color="#05C2F0" offset="100%"></stop></linearGradient></defs><g id="Final-Homepage-+-Styles" stroke="none" stroke-width="1" fill="none" fill-rule="evenodd"><g id="Homepage---Loan-Types" transform="translate(-568.000000, -943.000000)"><g id="homepage_AR" transform="translate(568.000000, 943.000000)"><path d="M22.88,117.216 L24.596,118.756 L150.216,118.756 C154.1231,112.548711 158.632932,106.741933 163.68,101.42 C173.331346,91.2892807 178.211838,77.527895 177.1,63.58 C175.34,41.536 152.9,20.152 130.372,18.04 C119.416,17.028 108.9,13.464 99.264,8.184 C88.0165416,2.02055642 75.2272681,-0.760384764 62.436,0.176 C25.476,2.816 -2.508,35.376 0.44,72.292 C1.76879179,89.6218418 9.8223876,105.744825 22.88,117.216 Z" id="Path" fill="#EEF7FF" fill-rule="nonzero"></path><rect id="Rectangle" fill="url(#linearGradient-1)" fill-rule="nonzero" transform="translate(121.602093, 106.194619) rotate(-160.800000) translate(-121.602093, -106.194619) " x="73.0480934" y="79.6692188" width="97.108" height="53.0508"></rect><path d="M141.46,53.108 L176.132,97.152 L84.436,65.252 L138.952,52.228 C139.887483,52.0178159 140.860939,52.3593794 141.46,53.108 Z" id="Path" fill="url(#linearGradient-2)" fill-rule="nonzero"></path><path d="M140.096,56.98 L171.16,96.404 L88.792,67.716 L137.588,56.1 C138.525227,55.8545738 139.517599,56.2027745 140.096,56.98 Z" id="Path" fill="url(#linearGradient-3)" fill-rule="nonzero" opacity="0.3" style="mix-blend-mode: multiply;"></path><path d="M119.372,106.612 L88.792,67.76 L171.16,96.404 L123.068,107.888 C121.693463,108.202521 120.25973,107.707542 119.372,106.612 Z" id="Path" fill="#FFFFFF" fill-rule="nonzero"></path><path d="M122.848,107.932 C121.60641,108.218979 120.309637,107.775346 119.504,106.788 L118.932,106.04 L75.724,114.224 L120.868,108.196 L152.504,140.932 L123.728,107.712 L122.848,107.932 Z" id="Path" fill="url(#linearGradient-4)" fill-rule="nonzero" opacity="0.3" style="mix-blend-mode: multiply;"></path><polygon id="Path" fill="#6ADFFC" fill-rule="nonzero" points="25.388 145.156 118.8 145.156 125.576 106.7 32.164 106.7"></polygon><polygon id="Path" fill="#6ADFFC" fill-rule="nonzero" points="25.388 68.288 118.8 68.288 125.576 29.832 32.164 29.832"></polygon><polygon id="Path" fill="url(#linearGradient-5)" fill-rule="nonzero" points="32.164 106.7 125.576 106.7 118.8 68.288 25.388 68.288"></polygon><polygon id="Path" fill="url(#linearGradient-6)" fill-rule="nonzero" opacity="0.15" style="mix-blend-mode: multiply;" points="114.444 141.328 121.22 102.872 121.22 102.872 114.444 64.416 120.56 29.832 114.796 29.832 109.34 60.676 116.116 99.088 116.116 99.088 109.34 137.544 26.708 137.544 26.048 141.328"></polygon><polygon id="Path" fill="#FFFFFF" fill-rule="nonzero" points="17.6 137.984 111.012 137.984 117.788 99.572 24.376 99.572"></polygon><polygon id="Path" fill="#FFFFFF" fill-rule="nonzero" points="17.6 61.292 111.012 61.292 117.788 22.88 24.376 22.88"></polygon><polygon id="Path" fill="#DEF1FF" fill-rule="nonzero" points="24.376 99.572 117.788 99.572 111.012 61.292 17.6 61.292"></polygon><polygon id="Path" fill="#CCE7FF" fill-rule="nonzero" points="30.096 29.392 30.976 29.392 30.096 34.452 29.216 34.452"></polygon><polygon id="Path" fill="#CCE7FF" fill-rule="nonzero" points="33.132 30.756 32.516 34.452 31.636 34.452 32.472 29.392 33.396 29.392 35.332 32.956 35.948 29.392 36.828 29.392 35.992 34.452 35.112 34.452"></polygon><polygon id="Path" fill="#CCE7FF" fill-rule="nonzero" points="37.84 29.392 38.852 29.392 39.644 33.484 41.888 29.392 42.9 29.392 40.04 34.452 38.94 34.452"></polygon><path d="M46.112,29.304 C47.608,29.304 48.488,30.404 48.224,31.9 C48.0059602,33.4107116 46.7143529,34.5338484 45.188,34.54 C43.692,34.54 42.812,33.44 43.076,31.9 C43.3302995,30.41618 44.6066899,29.3247737 46.112,29.304 Z M45.98,30.096 C44.9671134,30.1309121 44.12878,30.894727 44,31.9 C43.824,32.956 44.308,33.748 45.32,33.748 C46.3497736,33.6952519 47.1980467,32.9207417 47.344,31.9 C47.52,30.888 46.992,30.096 45.98,30.096 Z" id="Shape" fill="#CCE7FF" fill-rule="nonzero"></path><polygon id="Path" fill="#CCE7FF" fill-rule="nonzero" points="49.984 29.392 50.864 29.392 49.984 34.452 49.104 34.452"></polygon><path d="M51.7,31.9 C51.9735438,30.4093377 53.2645449,29.3212082 54.78,29.304 C55.5788386,29.2445042 56.3250502,29.7064447 56.628,30.448 L55.792,30.844 C55.6066455,30.3782984 55.1489456,30.079033 54.648,30.096 C53.6254555,30.127762 52.7726998,30.8878269 52.624,31.9 C52.448,32.956 53.02,33.748 53.988,33.748 C54.5619002,33.7376943 55.0984302,33.4613001 55.44,33 L56.1,33.396 C55.5784366,34.1147735 54.7440673,34.5401382 53.856,34.54 C52.404,34.54 51.436,33.484 51.7,31.9 Z" id="Path" fill="#CCE7FF" fill-rule="nonzero"></path><polygon id="Path" fill="#CCE7FF" fill-rule="nonzero" points="57.992 29.392 61.424 29.392 61.292 30.184 58.74 30.184 58.476 31.504 60.984 31.504 60.852 32.252 58.344 32.252 58.124 33.66 60.676 33.66 60.544 34.452 57.112 34.452"></polygon><polygon id="Path" fill="#CCE7FF" fill-rule="nonzero" points="108.944 31.196 80.52 31.196 80.872 29.392 109.252 29.392"></polygon><polygon id="Path" fill="#CCE7FF" fill-rule="nonzero" points="56.452 40.568 28.028 40.568 28.336 38.808 56.76 38.808"></polygon><polygon id="Path" fill="#CCE7FF" fill-rule="nonzero" points="108.328 34.628 71.852 34.628 72.16 32.824 108.636 32.824"></polygon><polygon id="Path" fill="#CCE7FF" fill-rule="nonzero" points="105.732 127.116 64.68 127.116 64.988 125.356 106.04 125.356"></polygon><polygon id="Path" fill="#CCE7FF" fill-rule="nonzero" points="46.508 127.116 25.476 127.116 25.784 125.356 46.816 125.356"></polygon><polygon id="Path" fill="#CCE7FF" fill-rule="nonzero" points="105.116 130.548 73.172 130.548 73.48 128.788 105.424 128.788"></polygon><polygon id="Path" fill="#CCE7FF" fill-rule="nonzero" points="51.304 130.548 24.772 130.548 25.08 128.788 51.612 128.788"></polygon><path d="M103.62,61.688 L105.776,49.192 L26.488,49.192 L24.376,61.644 L30.888,100.144 L27.016,120.824 L107.096,120.824 L110.66,100.232 L110.66,100.144 L103.62,61.688 Z M28.116,78.98 L84.7,78.98 L86.416,88.484 L29.7,88.484 L28.116,78.98 Z M105.82,78.188 L85.404,78.188 L83.688,68.684 L104.104,68.684 L105.82,78.188 Z M84.568,78.188 L27.984,78.188 L26.356,68.684 L82.896,68.684 L84.568,78.188 Z M85.536,78.98 L105.996,78.98 L107.712,88.484 L87.208,88.484 L85.536,78.98 Z M107.888,89.276 L109.604,98.648 L89.012,98.648 L87.34,89.276 L107.888,89.276 Z M103.928,67.892 L83.556,67.892 L82.5,61.688 L83.028,58.168 L103.4,58.168 L102.828,61.688 L103.928,67.892 Z M104.852,49.984 L103.532,57.376 L83.16,57.376 L84.304,49.984 L104.852,49.984 Z M27.148,49.984 L83.512,49.984 L82.324,57.376 L25.916,57.376 L27.148,49.984 Z M25.784,58.168 L82.236,58.168 L81.664,61.688 L82.764,67.892 L26.224,67.892 L25.168,61.688 L25.784,58.168 Z M29.832,89.276 L86.548,89.276 L88.176,98.648 L31.46,98.648 L29.832,89.276 Z M31.68,100.276 L31.592,99.484 L88.352,99.484 L88.44,100.188 L86.856,109.032 L30.052,109.032 L31.68,100.276 Z M29.92,109.78 L86.68,109.78 L84.832,120.076 L27.984,120.076 L29.92,109.78 Z M106.392,120.076 L85.624,120.076 L87.516,109.78 L108.196,109.78 L106.392,120.076 Z M108.372,108.988 L87.648,108.988 L89.276,100.144 L89.144,99.44 L109.736,99.44 L109.868,100.188 L108.372,108.988 Z" id="Shape" fill="#CCE7FF" fill-rule="nonzero" style="mix-blend-mode: multiply;"></path><circle id="Oval" fill="url(#linearGradient-7)" fill-rule="nonzero" cx="154.704" cy="21.296" r="17.424"></circle><path d="M151.096,17.204 L159.324,17.204" id="Path" stroke="#FFFFFF" stroke-width="1.32" stroke-linecap="round" stroke-linejoin="round"></path><path d="M151.096,20.68 L159.324,20.68" id="Path" stroke="#FFFFFF" stroke-width="1.32" stroke-linecap="round" stroke-linejoin="round"></path><polyline id="Path" stroke="#FFFFFF" stroke-width="1.32" stroke-linecap="round" stroke-linejoin="round" points="158.576 29.172 146.696 29.172 146.696 13.288 163.68 13.288 163.68 23.716"></polyline><polygon id="Path" stroke="#FFFFFF" stroke-width="1.32" stroke-linecap="round" stroke-linejoin="round" points="163.68 23.716 158.576 23.716 158.576 29.172"></polygon></g></g></g></svg> 