<?xml version="1.0" encoding="UTF-8"?> <svg xmlns="http://www.w3.org/2000/svg" xmlns:xlink="http://www.w3.org/1999/xlink" width="201px" height="129px" viewBox="0 0 201 129" version="1.1"><!-- Generator: Sketch 52.6 (67491) - http://www.bohemiancoding.com/sketch --><title>homepage_Equipment</title><desc>Created with Sketch.</desc><defs><linearGradient x1="-11.7053364%" y1="4.76386884%" x2="189.025522%" y2="152.093215%" id="linearGradient-1"><stop stop-color="#F4BD43" offset="0%"></stop><stop stop-color="#EA4969" offset="100%"></stop></linearGradient><linearGradient x1="-65.9923455%" y1="-41.3898705%" x2="373.586659%" y2="361.837207%" id="linearGradient-2"><stop stop-color="#F4BD43" offset="0%"></stop><stop stop-color="#EA4969" offset="100%"></stop></linearGradient><linearGradient x1="-926.949153%" y1="-44.7614239%" x2="2123.89831%" y2="251.136077%" id="linearGradient-3"><stop stop-color="#F4BD43" offset="0%"></stop><stop stop-color="#EA4969" offset="100%"></stop></linearGradient><linearGradient x1="-90.589701%" y1="-1072.70876%" x2="208.413621%" y2="1314.46029%" id="linearGradient-4"><stop stop-color="#F4BD43" offset="0%"></stop><stop stop-color="#EA4969" offset="100%"></stop></linearGradient><linearGradient x1="-377.305936%" y1="-373.37931%" x2="1218.44749%" y2="1196%" id="linearGradient-5"><stop stop-color="#F4BD43" offset="0%"></stop><stop stop-color="#EA4969" offset="100%"></stop></linearGradient><linearGradient x1="-561.525424%" y1="-9.92424242%" x2="2489.32203%" y2="286.060606%" id="linearGradient-6"><stop stop-color="#F4BD43" offset="0%"></stop><stop stop-color="#EA4969" offset="100%"></stop></linearGradient><linearGradient x1="-54.7219917%" y1="-793.265306%" x2="244.024896%" y2="1598.77551%" id="linearGradient-7"><stop stop-color="#F4BD43" offset="0%"></stop><stop stop-color="#EA4969" offset="100%"></stop></linearGradient><linearGradient x1="-188.348624%" y1="-186.413793%" x2="1414.6789%" y2="1382.96552%" id="linearGradient-8"><stop stop-color="#F4BD43" offset="0%"></stop><stop stop-color="#EA4969" offset="100%"></stop></linearGradient><linearGradient x1="0.858585859%" y1="-6.09848485%" x2="105.871212%" y2="113.699495%" id="linearGradient-9"><stop stop-color="#6ADFFC" offset="0%"></stop><stop stop-color="#05C2F0" offset="100%"></stop></linearGradient></defs><g id="Final-Homepage-+-Styles" stroke="none" stroke-width="1" fill="none" fill-rule="evenodd"><g id="Homepage---Loan-Types" transform="translate(-572.000000, -558.000000)"><g id="homepage_Equipment" transform="translate(572.000000, 558.000000)"><path d="M19.624,128.348 L143.352,128.348 C162.36,115.5 174.504,92.84 171.776,66.616 C169.224,42.548 153.252,21.736 130.548,13.332 C104.72,3.74 78.76,10.692 61.6,27.192 C50.292,38.06 37.356,46.992 23.408,54.208 C10.6328125,60.7885478 1.9958287,73.3229086 0.396,87.604 C-1.496,104.104 6.556,119.68 19.624,128.348 Z" id="Path" fill="#EEF7FF" fill-rule="nonzero"></path><rect id="Rectangle" fill="#FEBD09" fill-rule="nonzero" x="24.904" y="104.368" width="112.596" height="11.1496"></rect><path d="M145.552,94.688 L145.948,94.688 C151.8,94.996 156.464,102.432 156.464,111.496 C156.464,120.56 151.58,128.348 145.552,128.348 L136.972,128.348 L136.972,94.688 L145.552,94.688 Z" id="Path" fill="#163251" fill-rule="nonzero"></path><path d="M136.972,125.312 C132.968,125.312 129.36,119.416 129.096,112.464 C129.0584,112.142785 129.043697,111.819302 129.052,111.496 C129.052,104.148 132.748,97.724 136.972,97.724 L137.192,97.724 C140.888,97.9 144.848,103.532 144.848,111.496 C144.848,119.46 141.152,125.312 136.972,125.312 Z" id="Path" fill="#BBBCBE" fill-rule="nonzero"></path><path d="M136.928,100.76 L137.016,100.76 C137.808,100.804 138.82,101.684 139.656,103.048 C141.02,105.204 141.812,108.284 141.812,111.496 C141.812,118.228 138.688,122.32 136.972,122.32 C135.256,122.32 132.352,118.8 132.132,112.332 C132.096614,112.054811 132.081907,111.775372 132.088,111.496 C132.088,104.852 135.212,100.804 136.928,100.76 M136.972,94.688 C130.944,94.688 126.016,102.212 126.016,111.496 C126.016,111.848 126.06,112.2 126.06,112.552 C126.412,121.396 131.164,128.348 136.972,128.348 C142.78,128.348 147.884,120.824 147.884,111.496 C147.884,102.168 143.176,94.996 137.368,94.688 L136.972,94.688 Z" id="Shape" fill="#0D2748" fill-rule="nonzero"></path><path d="M37.136,112.552 C36.74,103.048 31.988,95.348 25.96,94.116 C25.3837663,93.9751165 24.7931824,93.9012935 24.2,93.896 L16.588,93.896 L16.588,112.552 L37.136,112.552 Z" id="Path" fill="#FEBD09" fill-rule="nonzero"></path><path d="M136.444,93.632 C135.090867,93.6187483 133.95922,92.6002656 133.804,91.256 C133.804,91.036 131.736,70.224 127.908,49.72 C120.736,11.308 114.4,13.684 113.696,13.684 C112.237968,13.684 111.056,12.5020317 111.056,11.044 C111.056,9.58596826 112.237968,8.404 113.696,8.404 C121.484,8.404 127.468,18.436 133.144,48.796 C136.972,69.52 139.084,90.508 139.128,90.728 C139.255411,92.19623 138.175136,93.4925591 136.708,93.632 L136.444,93.632 Z" id="Path" fill="#6C8AAD" fill-rule="nonzero"></path><rect id="Rectangle" fill="#6C8AAD" fill-rule="nonzero" x="73.26" y="11.396" width="5.632" height="60.456"></rect><path d="M132.572,93.632 C131.211138,93.6388198 130.068071,92.6100594 129.932,91.256 C129.888,91.036 127.82,70.224 123.992,49.72 C116.864,11.308 110.484,13.684 109.78,13.684 L63.668,13.684 C62.2099683,13.684 61.028,12.5020317 61.028,11.044 C61.028,9.58596826 62.2099683,8.404 63.668,8.404 L109.78,8.404 C117.568,8.404 123.596,18.436 129.228,48.796 C133.1,69.52 135.168,90.508 135.212,90.728 C135.340535,92.1807678 134.285453,93.4703127 132.836,93.632 L132.572,93.632 Z" id="Path" fill="#3E5A7D" fill-rule="nonzero"></path><rect id="Rectangle" fill="#3E5A7D" fill-rule="nonzero" x="73.26" y="12.056" width="5.632" height="11.6248"></rect><path d="M60.456,98.208 L60.456,112.552 L132.176,112.552 C132.176,112.2 132.924,111.848 132.924,111.54 C132.924,99.572 132.792,102.256 140.536,102.256 L140.932,102.256 L140.932,89.98 L95.832,89.98 L60.456,98.208 Z" id="Path" fill="#FFDE55" fill-rule="nonzero"></path><path d="M81.004,112.552 C80.608,103.048 75.856,95.348 69.828,94.116 C69.2517663,93.9751165 68.6611824,93.9012935 68.068,93.896 L60.456,93.896 L60.456,112.552 L81.004,112.552 Z" id="Path" fill="#887130" fill-rule="nonzero"></path><rect id="Rectangle" fill="url(#linearGradient-1)" fill-rule="nonzero" x="95.436" y="91.212" width="37.928" height="21.3356"></rect><path d="M32.032,99.396 L32.296,99.396 C37.444,99.396 41.668,105.864 41.668,113.872 C41.6752556,114.180654 41.6605519,114.489432 41.624,114.796 C41.36,122.364 37.268,128.348 32.296,128.348 L25.344,128.348 L25.344,99.396 L32.032,99.396 Z" id="Path" fill="#163251" fill-rule="nonzero"></path><path d="M25.344,125.312 C22.308,125.312 18.964,120.604 18.964,113.872 C18.964,108.592 21.516,102.564 25.212,102.432 L25.344,102.432 C28.336,102.432 31.68,107.14 31.68,113.872 L31.68,114.664 C31.416,121.044 28.204,125.312 25.344,125.312 Z" id="Path" fill="#CFD8E5" fill-rule="nonzero"></path><path d="M25.344,105.468 C26.18,105.512 28.644,108.592 28.644,113.872 L28.644,114.532 C28.468,119.548 26.092,122.32 25.344,122.32 C24.596,122.32 22,119.24 22,113.872 C22,108.504 24.508,105.512 25.344,105.468 M25.344,99.396 L25.08,99.396 C20.02,99.616 15.928,105.996 15.928,113.872 C15.928,121.748 20.152,128.348 25.344,128.348 C30.536,128.348 34.408,122.364 34.716,114.796 L34.716,113.872 C34.716,105.864 30.536,99.396 25.344,99.396 Z" id="Shape" fill="#0D2748" fill-rule="nonzero"></path><path d="M109.384,122.452 L118.58,122.452 L118.58,1.188 C118.58,0.70198942 118.186011,0.308 117.7,0.308 L109.384,0.308 L109.384,122.452 Z" id="Path" fill="#3E5A7D" fill-rule="nonzero"></path><rect id="Rectangle" fill="#163251" fill-rule="nonzero" x="54.56" y="63.976" width="18.744" height="6.1556"></rect><path d="M40.656,36.212 C40.1640744,36.1947267 39.6895305,36.3950924 39.3588439,36.7596956 C39.0281572,37.1242988 38.8749299,37.6160911 38.94,38.104 L40.568,52.668 C40.6977229,53.7461284 41.5946811,54.56834 42.68,54.604 L52.888,54.604 C53.9733189,54.56834 54.8702771,53.7461284 55,52.668 L55.484,48.136 C55.5732487,46.8685273 55.4843841,45.5948007 55.22,44.352 L53.768,38.06 C53.4503982,37.0008436 52.4967458,36.259114 51.392,36.212 L40.656,36.212 Z" id="Path" fill="#2C4866" fill-rule="nonzero"></path><path d="M43.868,36.212 C43.3760744,36.1947267 42.9015305,36.3950924 42.5708439,36.7596956 C42.2401572,37.1242988 42.0869299,37.6160911 42.152,38.104 L43.78,52.668 C43.9097229,53.7461284 44.8066811,54.56834 45.892,54.604 L56.144,54.604 C57.2293189,54.56834 58.1262771,53.7461284 58.256,52.668 L58.696,48.136 C58.7997106,46.8705817 58.7256578,45.5968736 58.476,44.352 L56.98,38.06 C56.6623982,37.0008436 55.7087458,36.259114 54.604,36.212 L43.868,36.212 Z" id="Path" fill="#3E5A7D" fill-rule="nonzero"></path><path d="M53.548,63.932 C54.6958965,64.6669895 56.0148906,65.0914933 57.376,65.164 L72.072,65.164 C73.2286057,65.1406271 74.1606271,64.2086057 74.184,63.052 L74.184,62.084 C74.1271617,60.8725358 73.2893814,59.8386793 72.116,59.532 L57.332,56.32 C55.9522329,56.0648286 54.5546573,55.9177153 53.152,55.88 L44.22,55.88 C43.032,55.88 42.856,56.408 43.824,57.112 L53.548,63.932 Z" id="Path" fill="#3E5A7D" fill-rule="nonzero"></path><rect id="Rectangle" fill="#6C8AAD" fill-rule="nonzero" x="46.684" y="68.112" width="39.292" height="25.982" rx="5.324"></rect><rect id="Rectangle" fill="#6C8AAD" fill-rule="nonzero" x="29.392" y="11.396" width="5.632" height="60.456"></rect><rect id="Rectangle" fill="#0D2748" fill-rule="nonzero" x="42.856" y="63.976" width="12.188" height="6.1556"></rect><rect id="Rectangle" fill="#3E5A7D" fill-rule="nonzero" x="88.528" y="74.888" width="45.804" height="16.3284"></rect><rect id="Rectangle" fill="#163251" fill-rule="nonzero" x="104.544" y="0.308" width="9.196" height="122.1264"></rect><rect id="Rectangle" fill="#3E5A7D" fill-rule="nonzero" x="27.5" y="68.112" width="34.892" height="25.982" rx="5.324"></rect><path d="M49.632,98.692 C49.9533099,99.5645529 50.7707226,100.155873 51.7,100.188 L89.76,100.188 C90.1620045,100.204386 90.5507361,100.042454 90.8222215,99.7455168 C91.093707,99.4485796 91.2202484,99.0469313 91.168,98.648 L89.76,87.076 C89.672,86.24 89.408,84.832 89.232,83.952 L86.68,73.392 C86.504,72.512 85.932,72.424 85.492,73.172 L78.452,84.172 C77.8982394,84.9685725 77.0015365,85.4576832 76.032,85.492 L46.816,85.492 C46.4271519,85.4471221 46.045379,85.6210156 45.8240146,85.9438386 C45.6026502,86.2666616 45.5780137,86.6854486 45.76,87.032 L49.632,98.692 Z" id="Path" fill="#3E5A7D" fill-rule="nonzero"></path><path d="M42.284,63.052 C42.3079541,64.2255079 43.2662476,65.1642445 44.44,65.164 L59.708,65.164 C60.2681372,65.164 60.8053327,64.9414864 61.2014095,64.5454095 C61.5974864,64.1493327 61.82,63.6121372 61.82,63.052 L61.82,61.952 C61.7821236,60.7240013 60.9404538,59.667437 59.752,59.356 L44.396,56.012 C43.8830913,55.8717342 43.3340459,55.9838015 42.9171356,56.3138555 C42.5002253,56.6439095 42.2651664,57.1525913 42.284,57.684 L42.284,63.052 Z" id="Path" fill="#2C4866" fill-rule="nonzero"></path><path d="M24.904,65.384 L34.056,65.384 C36.52,65.384 39.996,67.408 41.844,69.872 L60.764,98.208 L61.424,99.176 C63.228,101.64 57.42,98.824 54.956,98.824 L38.324,101.596 C37.7094381,100.393836 36.972182,99.2584622 36.124,98.208 C34.364,96.052 32.208,94.6 29.876,94.116 C29.299225,93.9780777 28.7089782,93.9042969 28.116,93.896 L20.504,93.896 L20.504,72.204 C20.46,68.464 22.484,65.384 24.904,65.384 Z" id="Path" fill="#FFDE55" fill-rule="nonzero"></path><path d="M92.576,93.632 C91.2228675,93.6187483 90.0912201,92.6002656 89.936,91.256 C89.936,91.036 87.868,70.224 84.04,49.72 C76.868,11.308 70.532,13.684 69.828,13.684 C68.3699683,13.684 67.188,12.5020317 67.188,11.044 C67.188,9.58596826 68.3699683,8.404 69.828,8.404 C77.616,8.404 83.6,18.436 89.276,48.796 C93.104,69.52 95.216,90.508 95.216,90.728 C95.2896303,91.4288899 95.0799677,92.130125 94.6336954,92.675569 C94.1874231,93.2210129 93.5415912,93.5653822 92.84,93.632 L92.576,93.632 Z" id="Path" fill="#6C8AAD" fill-rule="nonzero"></path><path d="M88.704,93.632 C87.3431379,93.6388198 86.2000708,92.6100594 86.064,91.256 C86.02,91.036 83.952,70.224 80.124,49.72 C72.996,11.308 66.616,13.684 65.912,13.684 L29.568,13.684 C28.1099683,13.684 26.928,12.5020317 26.928,11.044 C26.928,9.58596826 28.1099683,8.404 29.568,8.404 L65.912,8.404 C73.7,8.404 79.728,18.436 85.36,48.796 C89.232,69.52 91.3,90.508 91.344,90.728 C91.4725348,92.1807678 90.4174525,93.4703127 88.968,93.632 L88.704,93.632 Z" id="Path" fill="#3E5A7D" fill-rule="nonzero"></path><path d="M96.976,91.476 L82.544,92.268 L76.12,98.208 L56.848,98.208 L37.928,69.872 C36.08,67.408 32.604,65.384 30.14,65.384 L20.988,65.384 C17.028,65.384 16.588,65.912 16.588,72.204 L16.588,93.896 L24.2,93.896 C24.7931824,93.9012935 25.3837663,93.9751165 25.96,94.116 C28.292,94.6 30.448,96.052 32.208,98.208 C33.0711808,99.2475028 33.8095513,100.384593 34.408,101.596 C35.7643405,104.29311 36.6144087,107.216152 36.916,110.22 C37.0729773,111.556602 38.2102426,112.561187 39.556,112.552 L82.676,112.552 L82.676,111.496 C82.676,99.572 88.924,102.212 96.668,102.212 L97.064,102.212 L96.976,91.476 Z" id="Path" fill="url(#linearGradient-2)" fill-rule="nonzero"></path><path d="M72.336,114.048 C72.732,102.784 77.44,92.928 83.468,91.432 C84.044775,91.2940777 84.6350218,91.2202969 85.228,91.212 L97.152,91.212 L97.152,112.552 L72.336,114.048 Z" id="Path" fill="#FEBD09" fill-rule="nonzero"></path><path d="M95.832,94.688 L96.228,94.688 C102.08,94.996 106.744,102.432 106.744,111.496 C106.744,120.56 101.86,128.348 95.832,128.348 L87.252,128.348 L87.252,94.688 L95.832,94.688 Z" id="Path" fill="#163251" fill-rule="nonzero"></path><path d="M87.252,125.312 C83.248,125.312 79.64,119.416 79.376,112.464 C79.376,112.156 79.332,111.848 79.332,111.496 C79.332,104.148 83.028,97.724 87.252,97.724 L87.472,97.724 C91.168,97.9 95.128,103.532 95.128,111.496 C95.128,119.46 91.432,125.312 87.252,125.312 Z" id="Path" fill="#CFD8E5" fill-rule="nonzero"></path><path d="M87.208,100.76 L87.296,100.76 C88.088,100.804 89.1,101.684 89.98,103.048 C91.344,105.204 92.092,108.284 92.092,111.496 C92.092,118.228 88.968,122.32 87.252,122.32 C85.536,122.32 82.632,118.8 82.412,112.332 C82.376614,112.054811 82.3619068,111.775372 82.368,111.496 C82.368,104.852 85.492,100.804 87.208,100.76 M87.252,94.688 C81.224,94.688 76.34,102.212 76.34,111.496 L76.34,112.552 C76.692,121.396 81.444,128.348 87.252,128.348 C93.06,128.348 98.164,120.824 98.164,111.496 C98.164,102.168 93.5,94.996 87.648,94.688 L87.252,94.688 Z" id="Shape" fill="#0D2748" fill-rule="nonzero"></path><path d="M103.664,5.984 L113.74,5.984 L113.74,0.308 L103.664,0.308 C103.177989,0.308 102.784,0.70198942 102.784,1.188 L102.784,5.104 C102.771155,5.34109539 102.859737,5.57246778 103.027635,5.74036538 C103.195532,5.90826298 103.426905,5.99684468 103.664,5.984 Z" id="Path" fill="#163251" fill-rule="nonzero"></path><path d="M134.244,122.452 L143.44,122.452 L143.44,1.188 C143.44,0.70198942 143.046011,0.308 142.56,0.308 L134.244,0.308 L134.244,122.452 Z" id="Path" fill="#3E5A7D" fill-rule="nonzero"></path><rect id="Rectangle" fill="#163251" fill-rule="nonzero" x="129.404" y="0.308" width="9.196" height="122.1264"></rect><path d="M128.48,5.984 L138.6,5.984 L138.6,0.308 L128.48,0.308 C127.993989,0.308 127.6,0.70198942 127.6,1.188 L127.6,5.104 C127.587155,5.34109539 127.675737,5.57246778 127.843635,5.74036538 C128.011532,5.90826298 128.242905,5.99684468 128.48,5.984 Z" id="Path" fill="#163251" fill-rule="nonzero"></path><path d="M145.288,125.356 L151.932,125.356 L151.932,91.388 C151.932,90.9019894 151.538011,90.508 151.052,90.508 L145.288,90.508 L145.288,125.356 Z" id="Path" fill="#FFDE55" fill-rule="nonzero"></path><path d="M145.288,121.044 L145.288,125.356 L199.584,125.356 C200.070011,125.356 200.464,124.962011 200.464,124.476 L200.464,121.924 C200.464,121.437989 200.070011,121.044 199.584,121.044 L145.288,121.044 Z" id="Path" fill="#FFDE55" fill-rule="nonzero"></path><rect id="Rectangle" fill="url(#linearGradient-3)" fill-rule="nonzero" x="140.184" y="90.508" width="5.192" height="34.8568"></rect><rect id="Rectangle" fill="url(#linearGradient-4)" fill-rule="nonzero" x="140.184" y="121.044" width="52.976" height="4.3208"></rect><path d="M136.62,96.888 L145.376,96.888 L145.376,90.508 L136.62,90.508 C136.133989,90.508 135.74,90.9019894 135.74,91.388 L135.74,96.008 C135.74,96.4940106 136.133989,96.888 136.62,96.888 Z" id="Path" fill="url(#linearGradient-5)" fill-rule="nonzero"></path><path d="M118.448,125.356 L125.048,125.356 L125.048,91.388 C125.060845,91.1509046 124.972263,90.9195322 124.804365,90.7516346 C124.636468,90.583737 124.405095,90.4951553 124.168,90.508 L118.448,90.508 L118.448,125.356 Z" id="Path" fill="#FFDE55" fill-rule="nonzero"></path><path d="M118.448,121.044 L118.448,125.356 L172.744,125.356 C173.230011,125.356 173.624,124.962011 173.624,124.476 L173.624,121.924 C173.624,121.437989 173.230011,121.044 172.744,121.044 L118.448,121.044 Z" id="Path" fill="#FFDE55" fill-rule="nonzero"></path><path d="M114.18,125.356 L118.492,125.356 L118.492,90.508 L113.3,90.508 L113.3,124.476 C113.3,124.962011 113.693989,125.356 114.18,125.356 Z" id="Path" fill="url(#linearGradient-6)" fill-rule="nonzero"></path><path d="M113.3,121.044 L113.3,124.476 C113.3,124.962011 113.693989,125.356 114.18,125.356 L166.32,125.356 L166.32,121.044 L113.3,121.044 Z" id="Path" fill="url(#linearGradient-7)" fill-rule="nonzero"></path><path d="M109.78,96.888 L118.492,96.888 L118.492,90.508 L109.78,90.508 C109.293989,90.508 108.9,90.9019894 108.9,91.388 L108.9,96.008 C108.9,96.4940106 109.293989,96.888 109.78,96.888 Z" id="Path" fill="url(#linearGradient-8)" fill-rule="nonzero"></path><path d="M21.912,79.508 C21.912,82.456 23.452,84.832 25.344,84.832 C27.236,84.832 28.644,82.632 28.776,79.86 L28.776,79.508 C28.776,76.604 27.236,74.228 25.344,74.228 L25.256,74.228 C23.408,74.316 21.912,76.648 21.912,79.508 Z" id="Path" fill="#FFDE55" fill-rule="nonzero"></path><circle id="Oval" fill="url(#linearGradient-9)" fill-rule="nonzero" cx="172.172" cy="33.264" r="17.424"></circle><path d="M182.864,34.892 L182.864,31.768 L180.752,31.768 C180.543783,30.6025174 180.094161,29.4934511 179.432,28.512 L180.884,27.06 L178.728,24.86 L177.232,26.356 C176.116876,25.6319132 174.854165,25.1659126 173.536,24.992 L173.536,22.924 L170.456,22.924 L170.456,25.124 C169.464602,25.36219 168.52514,25.7797289 167.684,26.356 L166.188,24.86 L163.988,27.06 L165.44,28.512 C164.777839,29.4934511 164.328217,30.6025174 164.12,31.768 L162.008,31.768 L162.008,34.892 L164.164,34.892 C164.403754,36.0222941 164.88396,37.0877504 165.572,38.016 L163.988,39.6 L166.188,41.8 L167.816,40.128 C168.621026,40.6535948 169.515944,41.0264773 170.456,41.228 L170.456,43.736 L173.536,43.736 L173.536,41.404 C174.786304,41.2321254 175.985991,40.7972389 177.056,40.128 L178.728,41.8 L180.884,39.6 L179.3,38.016 C180.004745,37.0976463 180.486724,36.028255 180.708,34.892 L182.864,34.892 Z" id="Path" stroke="#FFFFFF" stroke-width="1.32" stroke-linecap="round" stroke-linejoin="round"></path><circle id="Oval" stroke="#FFFFFF" stroke-width="1.32" stroke-linecap="round" stroke-linejoin="round" cx="172.436" cy="33.308" r="2.86"></circle></g></g></g></svg> 