<?xml version="1.0" encoding="UTF-8"?> <svg xmlns="http://www.w3.org/2000/svg" xmlns:xlink="http://www.w3.org/1999/xlink" width="442px" height="390px" viewBox="0 0 442 390" version="1.1"><!-- Generator: Sketch 52.6 (67491) - http://www.bohemiancoding.com/sketch --><title>homepage_Apply</title><desc>Created with Sketch.</desc><defs><linearGradient x1="106.784774%" y1="-51.3670777%" x2="-88.7891474%" y2="257.063363%" id="linearGradient-1"><stop stop-color="#6ADFFC" offset="0%"></stop><stop stop-color="#05C2F0" offset="100%"></stop></linearGradient><linearGradient x1="40.431465%" y1="94.153751%" x2="122.754124%" y2="25.6199923%" id="linearGradient-2"><stop stop-color="#6ADFFC" offset="0%"></stop><stop stop-color="#05C2F0" offset="100%"></stop></linearGradient><linearGradient x1="49.3718008%" y1="97.0630372%" x2="50.8608655%" y2="61.304954%" id="linearGradient-3"><stop stop-color="#0D2748" stop-opacity="0" offset="0%"></stop><stop stop-color="#0D2748" offset="100%"></stop></linearGradient><linearGradient x1="107.79638%" y1="17.3759395%" x2="-18.7330317%" y2="102.35373%" id="linearGradient-4"><stop stop-color="#6ADFFC" offset="0%"></stop><stop stop-color="#05C2F0" offset="100%"></stop></linearGradient><linearGradient x1="16.9230769%" y1="95.4601395%" x2="65.8278146%" y2="48.0743454%" id="linearGradient-5"><stop stop-color="#6ADFFC" offset="0%"></stop><stop stop-color="#05C2F0" offset="100%"></stop></linearGradient><linearGradient x1="46.6511628%" y1="74.8953975%" x2="76.6046512%" y2="24.6025105%" id="linearGradient-6"><stop stop-color="#0D2748" stop-opacity="0" offset="0%"></stop><stop stop-color="#0D2748" offset="100%"></stop></linearGradient><linearGradient x1="69.6422268%" y1="51.1425462%" x2="143.99538%" y2="85.4733406%" id="linearGradient-7"><stop stop-color="#0D2748" stop-opacity="0" offset="0%"></stop><stop stop-color="#0D2748" offset="100%"></stop></linearGradient><linearGradient x1="99.2599553%" y1="15.048833%" x2="-154.234142%" y2="206.794133%" id="linearGradient-8"><stop stop-color="#6ADFFC" offset="0%"></stop><stop stop-color="#05C2F0" offset="100%"></stop></linearGradient><linearGradient x1="41.2083333%" y1="135.741935%" x2="79.6666667%" y2="-105.516129%" id="linearGradient-9"><stop stop-color="#0D2748" stop-opacity="0" offset="0%"></stop><stop stop-color="#0D2748" offset="100%"></stop></linearGradient><linearGradient x1="22.9325513%" y1="31.6715543%" x2="148.416422%" y2="116.231672%" id="linearGradient-10"><stop stop-color="#F4BD43" offset="0%"></stop><stop stop-color="#EA4969" offset="100%"></stop></linearGradient></defs><g id="Final-Homepage-+-Styles" stroke="none" stroke-width="1" fill="none" fill-rule="evenodd"><g id="Homepage---How-it-works-1" transform="translate(-398.000000, -236.000000)"><g id="homepage_Apply" transform="translate(398.000000, 236.000000)"><path d="M87.8,320.3 C80.8489065,320.301557 74.2271165,317.338351 69.5966299,312.154115 C64.9661433,306.96988 62.7665774,300.056805 63.55,293.15 L88.8,72.6 C90.1990925,60.2653257 100.636232,50.9472199 113.05,50.95 L374.65,50.95 C381.607459,50.9450391 388.23474,53.9164714 392.859397,59.1144334 C397.484055,64.3123953 399.664325,71.2403589 398.85,78.15 L373.6,298.7 C372.177425,311.014846 361.746739,320.305684 349.35,320.3 L87.8,320.3 Z" id="Path" fill="#CCE7FF" fill-rule="nonzero"></path><g id="Group" opacity="0.75" transform="translate(0.000000, 45.500000)" fill="#FFFFFF" fill-rule="nonzero"><g id="Path" opacity="0.25"><polygon points="72 150.45 48.4 150.45 139.45 0.4 163.05 0.4 72 151.575"></polygon><polygon points="202.5 294.05 381.85 0.4 402.05 0.4 222.75 294.05"></polygon><polygon points="231.5 294.05 410.8 0.4 441.9 0.4 262.6 294.05"></polygon><polygon points="0.3 294.05 179.6 0.4 260.5 0.4 81.2 294.05"></polygon><polygon points="309.5 294.05 383.6 177.960697 384.75 192.7 390.4 294.05"></polygon></g></g><path d="M196.35,193.9 C188,192.15 184.9,148.4 195.4,149.15 C205.9,149.9 208.75,183.15 208.75,183.15 C208.75,183.15 202.6,195.25 196.35,193.9 Z" id="Path" fill="#05C2F0" fill-rule="nonzero"></path><path d="M166.95,150.8 L250.7,147.65 C254.973726,147.334285 259.190777,148.779253 262.37278,151.649665 C265.554783,154.520077 267.425169,158.566447 267.55,162.85 C267.8,171.95 266.8,183.9 253.55,183.75 L168.05,174.75 C163.2,174.55 160.2,169.05 159.25,164.3 C159.25,164.3 160.65,151.3 166.95,150.8 Z" id="Path" fill="#BF7D51" fill-rule="nonzero"></path><path d="M219.1,180.1 L217.45,149.1 L207.75,149.45 L199.6,149.75 L195.4,149.75 C195.4,149.75 199.85,163.85 192.15,177.35 L219.1,180.1 Z" id="Path" fill="#A06645" fill-rule="nonzero" opacity="0.5"></path><path d="M261.25,146.15 C261.25,146.15 235.6,147.45 195.4,149.15 C200.3,149.6 204.05,194.8 196.35,193.9 C218.85,196.75 244.35,200.3 244.35,200.3 C257,204.25 261.8,190.1 264.2,181.35 C266.55,172.7 270,148.1 261.25,146.15 Z" id="Path" fill="url(#linearGradient-1)" fill-rule="nonzero"></path><path d="M236.15,178.5 C230.55,178.15 233.3,196.55 203.95,194.9 C215.05,196.3 226.15,197.8 233.9,198.85 C233.65,195.65 238.6,178.7 236.15,178.5 Z" id="Path" fill="url(#linearGradient-2)" fill-rule="nonzero" opacity="0.5" style="mix-blend-mode: multiply;"></path><path d="M278.55,386.05 L279.15,379.4 L281.95,386.7 L283.3,387 C294.15,389.4 313.85,390.35 336.2,389.2 C337.6,365.1 338.2,333.65 328,306.95 C321.85,290.95 314.45,275.35 297.8,277.9 C293.460223,278.594072 289.26829,280.01392 285.4,282.1 C276.05,277.6 264.75,275.85 257.35,275.55 C242.15,274.9 237.25,284.05 233.15,302.45 L222.4,387.55 C241.8,384.4 262.55,383.45 278.55,386.05 Z" id="Path" fill="#0D2748" fill-rule="nonzero"></path><path d="M328,306.95 C325.3,300 322.4,293.15 318.65,287.8 L235.9,292.15 C234.9,295.2 234,298.6 233.15,302.45 L229,335.25 C232.3,336.7 281.15,357.95 313.9,353.55 C323.7,352.25 331,350.65 336.45,349.05 C335.5,334.8 333.1,320.3 328,306.95 Z" id="Path" fill="url(#linearGradient-3)" fill-rule="nonzero" style="mix-blend-mode: multiply;"></path><path d="M181.9,82.95 C178.7,82.15 177.6,83.4 176.85,86.65 C176.85,86.65 161.5,140.35 158.25,158.35 C156.9,165.8 161.8,178.15 173.4,173.85 C173.4,173.85 182.75,165.95 183.05,162.45 L187.4,86.8 C187.7,83.85 184.85,83.35 182,82.65 L181.9,82.95 Z" id="Path" fill="#BF7D51" fill-rule="nonzero"></path><path d="M231.6,233.5 C227,285.95 227.85,299.7 226.1,331.55 C282.6,351.65 330.75,341.1 336.6,333.65 C333.25,309.7 326.45,287.9 326.45,250.15 C326.45,209.4 336.75,205.6 335.6,182.15 C334.65,162.05 321.65,148.45 275.85,144.15 C227.8,145.75 236.1,182.35 231.6,233.5 Z" id="Path" fill="url(#linearGradient-4)" fill-rule="nonzero"></path><path d="M229.1,265.75 L288.6,280.8 C291.674712,281.388239 294.779731,279.936542 296.3,277.2 L309.65,253.15 C310.937729,253.680596 312.256889,254.131448 313.6,254.5 C319.7,242.2 320.35,235.4 327.25,210.95 L322.45,184.35 L281.65,252.7 L230.95,241.3 C230.15,250.65 229.55,258.65 229.1,265.75 Z" id="Path" fill="url(#linearGradient-5)" fill-rule="nonzero" opacity="0.5" style="mix-blend-mode: multiply;"></path><path d="M273,243.2 L298.05,171.55 C301.1,162.35 312.5,155.75 321.45,159.45 L325.75,161.85 C333,167.45 335.45,179 329.5,188.85 L292.4,252.7 C289.991349,257.197043 284.607348,259.191912 279.85,257.35 C274.85,255.4 270.65,250.6 273,243.2 Z" id="Path" fill="#BF7D51" fill-rule="nonzero"></path><path d="M278.75,258.55 C283.934777,260.264608 289.596492,257.953271 292.1,253.1 C295.55,246.5 291.6,235.35 284.25,233.95 L212.45,223.55 C209.765847,223.095881 207.090852,224.403209 205.8,226.8 C204.920934,228.436318 204.802411,230.375495 205.475654,232.10669 C206.148897,233.837885 207.546394,235.187499 209.3,235.8 L278.75,258.55 Z" id="Path" fill="#BF7D51" fill-rule="nonzero"></path><path d="M212.95,226.15 L184.4,194.6 C183.4,193.5 182,192.8 181.2,193 L171.05,195.8 C170.910437,195.8146 170.783433,195.887173 170.7,196 L169.3,197.95 L171.75,198.45 L200,229.65 C201,230.75 202.4,231.45 203.2,231.25 L213.35,228.45 C214.1,228.25 213.95,227.2 212.95,226.15 Z" id="Path" fill="#436DB5" fill-rule="nonzero"></path><path d="M212,230.35 L201.85,233.1 C201.05,233.3 199.65,232.6 198.65,231.55 L170.1,200 C169.1,198.9 168.95,197.85 169.7,197.65 L179.85,194.85 C180.65,194.65 182.05,195.35 183.05,196.45 L211.65,228 C212.6,229.05 212.8,230.15 212,230.35 Z" id="Path" fill="#0D2748" fill-rule="nonzero"></path><path d="M203.1,216.4 L195.5,214.75 C195.5,214.75 188.5,210.95 186.3,210 C184.1,209.05 182.7,210.4 182.5,210.75 C182.3,211.1 180,209 178.45,211.35 C178.3,211.55 184.35,217.05 184.35,217.05 C184.31352,217.634618 184.471765,218.21485 184.8,218.7 C185.3,219.45 189.15,223.6 189.35,223.9 C189.55,224.2 197.75,232.2 198.55,232.5 L220.1,239.2 C223.753287,240.37292 227.681086,238.453153 229,234.85 C230.35,231.15 229.6,226.8 225.7,226.1 C223.220793,225.646978 220.767349,225.062824 218.35,224.35 C216.1,223.6 210.3,214.65 208.6,213.35 C206.9,212.05 203.1,216.4 203.1,216.4 Z" id="Path" fill="#BF7D51" fill-rule="nonzero"></path><path d="M239.15,104.15 C239.15,104.15 229.3,103.5 228.3,93.3 C227.75,87.3 232.25,85.45 232.25,85.45 C232.25,85.45 223.15,75.5 233.6,65.5 C240.3,58.6 252.55,63.75 252.55,63.75 C252.55,63.75 254.4,57.55 262.85,57.5 C268.85,57.45 270.95,63.55 270.95,63.55 C270.95,63.55 282.9,58.2 292.1,69.75 C300.3,80.05 291.35,95.45 291.35,95.45 C293.906423,99.2533133 294.673516,103.983724 293.45,108.4 C292.2,113 285.4,115.9 285.4,115.9 L239.15,104.15 Z" id="Path" fill="#0D2748" fill-rule="nonzero"></path><path d="M239.05,97.4 L238.25,88.95 C236.044892,88.1770885 234.008209,86.9890234 232.25,85.45 C232.25,85.45 228.5,87 228.3,91.8 L239.05,97.4 Z" id="Path" fill="url(#linearGradient-6)" fill-rule="nonzero" style="mix-blend-mode: multiply;"></path><path d="M287.05,105 C287.05,105 281.55,136.15 291.95,146.3 C281.95,155.95 268.15,156.55 261.1,156.2 C260.123725,156.157981 259.22441,155.658104 258.673318,154.851148 C258.122227,154.044193 257.983877,153.024633 258.3,152.1 C260.15,146.8 262.45,136.3 257.6,123.15 C250.55,104 287.05,105 287.05,105 Z" id="Path" fill="#BF7D51" fill-rule="nonzero"></path><path d="M278.95,114.1 C278.9,112.05 285.45,106.2 284.6,105 L277.35,105 L276.7,105.1 L276.5,105.1 L276,105.2 L275.75,105.2 L275.25,105.3 L274.3,105.3 L272.85,105.55 L272.7,105.55 L272.1,105.65 L271.9,105.65 L271.35,105.75 L271.15,105.75 L270.6,105.9 L270.4,105.9 L269.7,106.1 L268.95,106.3 C268.9,106.3 268.85,106.3 268.85,106.35 L268.2,106.5 L268.05,106.5 L267.5,106.7 L267.3,106.7 L266.8,106.9 L266.6,106.9 L266,107.1 L265.9,107.1 L265.2,107.35 C265.2,107.4 265.2,107.4 265.15,107.4 L264.55,107.65 L264.4,107.75 L263.9,107.95 L263.7,108.05 L263.25,108.3 L263.1,108.3 L262.6,108.6 L262.5,108.6 L261.35,109.35 L261.2,109.45 L260.8,109.7 L260.65,109.85 L260.3,110.15 L260.15,110.25 L259.8,110.55 L259.65,110.7 L259.25,111.15 L259.2,111.15 L258.8,111.6 C258.8,111.65 258.75,111.7 258.7,111.75 C258.589604,111.844747 258.503821,111.964843 258.45,112.1 L258.3,112.25 L258.1,112.6 L257.95,112.8 L257.75,113.15 C257.75,113.2 257.7,113.25 257.65,113.3 L257.45,113.75 C257.446843,113.788531 257.428931,113.824356 257.4,113.85 C257.35,114.05 257.25,114.25 257.2,114.45 C257.163438,114.49101 257.145356,114.545255 257.15,114.6 L257,115.05 L257,115.25 C256.95,115.4 256.95,115.5 256.9,115.65 C256.907782,115.736411 256.890418,115.823229 256.85,115.9 C256.858115,116.035275 256.841164,116.170885 256.8,116.3 L256.8,116.55 C256.756249,116.712838 256.73936,116.881723 256.75,117.05 L256.75,118 C256.75,118.2 256.8,118.4 256.8,118.6 C256.811707,118.684249 256.828403,118.767729 256.85,118.85 C256.85,119.05 256.9,119.2 256.9,119.35 C256.940157,119.444639 256.957292,119.547453 256.95,119.65 C257.011625,119.809738 257.045446,119.978848 257.05,120.15 C257.1,120.25 257.1,120.35 257.15,120.45 L257.3,120.95 C257.3,121.05 257.35,121.15 257.35,121.25 L257.65,122.05 C260.85,130.75 260.95,138.25 260.1,143.9 C277.3,139.2 279.35,129.7 278.95,114.1 Z" id="Path" fill="#A06645" fill-rule="nonzero"></path><path d="M286.3,90.9 C283.75,76.6 275.2,68.65 261.2,69.7 C248.25,70.7 238.45,79.95 238,92.15 C237.55,104.35 243.6,135.15 257.6,134.15 C277.35,132.7 289.7,114.75 286.3,90.9 Z" id="Path" fill="#BF7D51" fill-rule="nonzero"></path><path d="M274.25,102.65 C272.45,102.95 269.4,102.3 267.75,97 C267.25,95.25 266.95,93.75 266.7,92.4 C266.46257,90.9168135 265.544525,89.6302909 264.219168,88.9234343 C262.893812,88.2165777 261.313983,88.1709002 259.95,88.8 C257.849162,89.8312612 255.579453,90.47491 253.25,90.7 C237.35,91.85 233.7,85.75 233.7,85.75 L238.65,80.15 L255,66.9 L279.75,67.9 L288.3,77.75 L291,99.95 C291,99.95 286.4,102.4 285.65,102.45 L274.25,102.65 Z" id="Path" fill="#0D2748" fill-rule="nonzero"></path><path d="M292.1,69.75 C297.15,78.45 292.15,91.6 283.8,91.2 C275.45,90.8 275.5,102.1 275.5,102.1 L277.15,105.55 C280.435159,105.158762 283.74172,104.975064 287.05,105 C287.05,105 286.25,109.55 285.85,115.7 C287.35,115 292.4,112.3 293.45,108.4 C294.673516,103.983724 293.906423,99.2533133 291.35,95.45 C291.35,95.45 300.3,80.05 292.1,69.75 Z" id="Path" fill="url(#linearGradient-7)" fill-rule="nonzero" style="mix-blend-mode: multiply;"></path><path d="M289.3,103.5 C289.6,109.05 286.5,113.75 282.35,114 C278.2,114.25 275.75,111.15 275.4,105.6 C275.05,100.05 277.55,95.2 281.7,94.95 C285.85,94.7 289,97.95 289.3,103.5 Z" id="Path" fill="#BF7D51" fill-rule="nonzero"></path><path d="M279.25,225.55 C280.7,229.05 286.7,238.2 296.05,246.55 L320.25,204.7 C320.5,203.65 320.6,203.1 320.6,203.1 L289.85,195.05 L279.25,225.55 Z" id="Path" fill="#A06645" fill-rule="nonzero" opacity="0.5"></path><path d="M323.8,159.3 L322.3,158.45 C320.634994,157.502722 318.800371,156.891181 316.9,156.65 C309.15,155.75 301.4,161.1 297.65,171.3 L279.7,221.5 C284.5,228.2 295.6,241.7 310,244.75 C311.85,244.35 326.85,219.15 333.5,192.8 C336.95,179.15 333.4,168 327.4,162 C326.321929,160.947967 325.111811,160.040379 323.8,159.3 Z" id="Path" fill="url(#linearGradient-8)" fill-rule="nonzero"></path><rect id="Rectangle" fill="#0D2748" fill-rule="nonzero" transform="translate(116.707500, 14.725000) rotate(90.000000) translate(-116.707500, -14.725000) " x="102.1825" y="10.8325" width="29.05" height="7.785" rx="1.25"></rect><circle id="Oval" fill="#0D2748" fill-rule="nonzero" cx="116.75" cy="24.65" r="7.8"></circle><rect id="Rectangle" fill="#0D2748" fill-rule="nonzero" transform="translate(294.407500, 14.775000) rotate(90.000000) translate(-294.407500, -14.775000) " x="279.8825" y="10.8825" width="29.05" height="7.785" rx="1.25"></rect><circle id="Oval" fill="#0D2748" fill-rule="nonzero" cx="294.4" cy="24.65" r="7.8"></circle><path d="M94.65,21.2 C94.3462434,21.2 94.1,21.4462434 94.1,21.75 L94.1,28.4 C94.0859113,28.5543197 94.137576,28.7074227 94.2422873,28.8216533 C94.3469987,28.9358838 94.4950398,29.0006418 94.65,29 L332.45,29 C332.871961,28.9785463 333.27554,28.8206242 333.6,28.55 C336.37585,26.2005965 339.335301,24.0771492 342.45,22.2 C342.639359,22.0699974 342.727991,21.8360113 342.672283,21.6131792 C342.616575,21.3903471 342.428259,21.225598 342.2,21.2 L94.65,21.2 Z" id="Path" fill="#0D2748" fill-rule="nonzero"></path><path d="M208.6,213.35 L206.45,211.15 C205.769311,210.492158 204.845186,210.147876 203.9,210.2 L199.2,210.9 L201.7,213.7 L203.1,216.4 L208.75,216.25 L208.6,213.35 Z" id="Path" fill="#BF7D51" fill-rule="nonzero"></path><circle id="Oval" fill="#057EF0" fill-rule="nonzero" cx="384.65" cy="82.55" r="55.95"></circle><circle id="Oval" fill="#FFFFFF" fill-rule="nonzero" cx="384.65" cy="82.55" r="46.7"></circle><path d="M341.6,86.15 C341.61703,67.7375761 352.451277,51.0537827 369.264725,43.5487433 C386.078173,36.043704 405.732071,39.1184664 419.45,51.4 C407.941934,38.4115144 390.180838,32.8751823 373.33084,37.0241424 C356.480841,41.1731024 343.320863,54.3231024 339.159125,71.1699497 C334.997387,88.016797 340.520246,105.782087 353.5,117.3 C345.814586,108.747441 341.57447,97.648313 341.6,86.15 Z" id="Path" fill="#F0F4F7" fill-rule="nonzero"></path><path d="M422.15,82.2 C421.958403,61.66505 405.285773,45.1038684 384.75,45.05 L384.75,82.2 L422.15,82.2 Z" id="Path" fill="#057EF0" fill-rule="nonzero" opacity="0.3"></path><circle id="Oval" fill="#057EF0" fill-rule="nonzero" cx="384.65" cy="82.5" r="4.5"></circle><path d="M359.988819,94.4866438 C359.786199,93.6523248 360.184225,92.7882427 360.95,92.4 L384.25,80.65 L420.85,80.65 C421.860648,80.6762638 422.673736,81.4893519 422.7,82.5 C422.7,83.5217268 421.871727,84.35 420.85,84.35 L385.1,84.35 L362.65,95.7 C362.379675,95.8132103 362.092443,95.8807943 361.8,95.9 C360.941452,95.9062356 360.19144,95.3209629 359.988819,94.4866438 Z" id="Path" fill="#057EF0" fill-rule="nonzero"></path><path d="M175.95,89.75 L174.9,94.7 L186.65,91.05 L180.3,64.5 C180.3,64.5 165.9,76.25 167.5,78.75 C169.1,81.25 173.3,88.35 175.95,89.75 Z" id="Path" fill="#BF7D51" fill-rule="nonzero"></path><path d="M168.25,37.85 C166.869288,37.85 165.75,36.7307119 165.75,35.35 L165.75,17.4 C165.75,16.0192881 166.869288,14.9 168.25,14.9 C169.619542,14.9266005 170.723399,16.0304577 170.75,17.4 L170.75,35.35 C170.75,36.7307119 169.630712,37.85 168.25,37.85 Z" id="Path" fill="#057EF0" fill-rule="nonzero"></path><path d="M181.9,64.85 L170.6,33 C170.273796,32.0083027 169.343933,31.3412265 168.3,31.35 C167.268391,31.3201385 166.328685,31.9399446 165.95,32.9 L153.35,65.1 L153.2,65.55 C152.740347,67.0573876 152.504498,68.6240945 152.5,70.2 C152.176735,75.829369 154.996297,81.1751231 159.824709,84.0872935 C164.653121,86.9994638 170.696879,86.9994638 175.525291,84.0872935 C180.353703,81.1751231 183.173265,75.829369 182.85,70.2 C182.856205,68.4110929 182.55168,66.6346983 181.95,64.95 C181.9,64.9 181.9,64.9 181.9,64.85 Z M159.357648,76.0322319 C157.449773,73.3095352 156.980941,69.8306183 158.1,66.7 C158.136562,66.6589902 158.154644,66.6047453 158.15,66.55 L168.15,41 L177.25,66.8 L177.3,66.8 C177.660439,67.8802824 177.846109,69.0111797 177.85,70.15 C177.863293,72.855218 176.801382,75.4549146 174.897881,77.3771695 C172.994379,79.2994245 170.405218,80.3867716 167.7,80.4 C164.375428,80.3831674 161.265523,78.7549287 159.357648,76.0322319 Z" id="Shape" fill="#057EF0" fill-rule="nonzero"></path><path d="M167.75,74.2 C167.75,74.2 166.5,75.1 166.35,75.6 C166.2,76.1 165.4,78.7 165.7,79.2 C166,79.7 167.15,83.65 167.65,84.15 C168.15,84.65 169.1,83.35 169.55,82.4 C169.55,82.3 171,82.25 171.45,80.85 C171.722126,79.8918677 171.807007,78.8902622 171.7,77.9 C172.42274,78.2565628 173.280988,78.1993463 173.95,77.75 C175.2,77.05 174.95,74.35 174.95,74.35 C174.95,74.35 177,75 177.75,73.35 C178.5,71.7 178.15,70.25 178,69.1 C177.950578,68.5113763 177.798269,67.9359875 177.55,67.4 C177.15,66.4 176.7,64.5 176.3,64.2 C175.4,64.7 174.8,66.85 174.8,66.85 C173.893328,66.7846376 172.984271,66.9390057 172.15,67.3 C170.8,67.9 170.85,70.6 170.85,70.6 C170.097336,70.5781508 169.358712,70.8067726 168.75,71.25 C167.95,71.95 167.75,74.2 167.75,74.2 Z" id="Path" fill="#BF7D51" fill-rule="nonzero"></path><path d="M187.25,75.4 C187.1,73.4 185.6,69.6 185.1,68.45 C184.6,67.3 181.85,61.4 181.65,61 C181.45,60.6 179.85,60.95 179.15,63.6 C178.45,66.25 181.15,69.85 181.15,69.85 L180.95,74.95 C180.95,74.95 177.7,78 177.5,81.65 C177.4,83.5 178.3,87.8 178.3,87.8 L178.45,92.45 L186.85,92.3 C187.378945,89.8055281 187.779472,87.2855446 188.05,84.75 C188.25,81.9 187.4,77.4 187.25,75.4 Z" id="Path" fill="#BF7D51" fill-rule="nonzero"></path><rect id="Rectangle" fill="#EEF7FF" fill-rule="nonzero" opacity="0.5" style="mix-blend-mode: multiply;" x="10.45" y="183.6" width="135.05" height="31.91" rx="7"></rect><rect id="Rectangle" fill="#FFFFFF" fill-rule="nonzero" x="8.95" y="181.1" width="135.05" height="31.91" rx="7"></rect><rect id="Rectangle" fill="#EEF7FF" fill-rule="nonzero" opacity="0.5" style="mix-blend-mode: multiply;" x="20.85" y="231.3" width="137.85" height="108.58" rx="7"></rect><rect id="Rectangle" fill="#FFFFFF" fill-rule="nonzero" x="18.35" y="228.3" width="137.85" height="108.58" rx="7"></rect><path d="M60.9,272.75 L35.9,272.75 C33.1661905,272.75 30.95,274.96619 30.95,277.7 L30.95,317.285 C30.95,320.01881 33.1661905,322.235 35.9,322.235 L60.9,322.235 C63.6338095,322.235 65.85,320.01881 65.85,317.285 L65.85,277.7 C65.85,274.96619 63.6338095,272.75 60.9,272.75 Z M35.9,274.75 L60.9,274.75 C62.52924,274.75 63.85,276.07076 63.85,277.7 L63.85,317.285 C63.85,318.91424 62.52924,320.235 60.9,320.235 L35.9,320.235 C34.27076,320.235 32.95,318.91424 32.95,317.285 L32.95,277.7 C32.95,276.07076 34.27076,274.75 35.9,274.75 Z" id="Rectangle" fill="#E5E7EA" fill-rule="nonzero"></path><path d="M99.4,272.75 L74.4,272.75 C71.6661905,272.75 69.45,274.96619 69.45,277.7 L69.45,317.285 C69.45,320.01881 71.6661905,322.235 74.4,322.235 L99.4,322.235 C102.13381,322.235 104.35,320.01881 104.35,317.285 L104.35,277.7 C104.35,274.96619 102.13381,272.75 99.4,272.75 Z M74.4,274.75 L99.4,274.75 C101.02924,274.75 102.35,276.07076 102.35,277.7 L102.35,317.285 C102.35,318.91424 101.02924,320.235 99.4,320.235 L74.4,320.235 C72.77076,320.235 71.45,318.91424 71.45,317.285 L71.45,277.7 C71.45,276.07076 72.77076,274.75 74.4,274.75 Z" id="Rectangle" fill="#E5E7EA" fill-rule="nonzero"></path><path d="M138.05,272.4 L113.05,272.4 C110.31619,272.4 108.1,274.61619 108.1,277.35 L108.1,316.935 C108.1,319.66881 110.31619,321.885 113.05,321.885 L138.05,321.885 C140.78381,321.885 143,319.66881 143,316.935 L143,277.35 C143,274.61619 140.78381,272.4 138.05,272.4 Z M113.05,274.4 L138.05,274.4 C139.67924,274.4 141,275.72076 141,277.35 L141,316.935 C141,318.56424 139.67924,319.885 138.05,319.885 L113.05,319.885 C111.42076,319.885 110.1,318.56424 110.1,316.935 L110.1,277.35 C110.1,275.72076 111.42076,274.4 113.05,274.4 Z" id="Rectangle" fill="#E5E7EA" fill-rule="nonzero"></path><rect id="Rectangle" fill="#E5E7EA" fill-rule="nonzero" x="34.35" y="241.7" width="105.65" height="7.935" rx="1.55"></rect><rect id="Rectangle" fill="#E5E7EA" fill-rule="nonzero" x="44.1" y="255.15" width="86.65" height="7.935" rx="1.55"></rect><path d="M58.3,189.4 L21.1,189.4 C19.47076,189.4 18.15,190.72076 18.15,192.35 L18.15,201.175 C18.15,202.80424 19.47076,204.125 21.1,204.125 L58.3,204.125 C59.92924,204.125 61.25,202.80424 61.25,201.175 L61.25,192.35 C61.25,190.72076 59.92924,189.4 58.3,189.4 Z M21.1,191.4 L58.3,191.4 C58.8246705,191.4 59.25,191.825329 59.25,192.35 L59.25,201.175 C59.25,201.699671 58.8246705,202.125 58.3,202.125 L21.1,202.125 C20.5753295,202.125 20.15,201.699671 20.15,201.175 L20.15,192.35 C20.15,191.825329 20.5753295,191.4 21.1,191.4 Z" id="Rectangle" fill="#E5E7EA" fill-rule="nonzero"></path><path d="M132.1,189.4 L69.55,189.4 C67.92076,189.4 66.6,190.72076 66.6,192.35 L66.6,201.175 C66.6,202.80424 67.92076,204.125 69.55,204.125 L132.1,204.125 C133.72924,204.125 135.05,202.80424 135.05,201.175 L135.05,192.35 C135.05,190.72076 133.72924,189.4 132.1,189.4 Z M69.55,191.4 L132.1,191.4 C132.624671,191.4 133.05,191.825329 133.05,192.35 L133.05,201.175 C133.05,201.699671 132.624671,202.125 132.1,202.125 L69.55,202.125 C69.0253295,202.125 68.6,201.699671 68.6,201.175 L68.6,192.35 C68.6,191.825329 69.0253295,191.4 69.55,191.4 Z" id="Rectangle" fill="#E5E7EA" fill-rule="nonzero"></path><path d="M53.1063511,195.145276 C53.5507879,194.817413 54.1768609,194.911914 54.5047241,195.356351 C54.8161942,195.778566 54.7464801,196.364708 54.3576809,196.703368 L54.2936489,196.754724 L51.2436489,199.004724 C50.9135763,199.24822 50.4712344,199.263954 50.1266971,199.052175 L50.0544413,199.003312 L47.1544413,196.853312 C46.7107844,196.524394 46.6177702,195.898098 46.9466882,195.454441 C47.2591603,195.032967 47.8400158,194.927948 48.2777004,195.200506 L48.3455587,195.246688 L50.651,196.956 L53.1063511,195.145276 Z" id="Path" fill="#E5E7EA" fill-rule="nonzero"></path><path d="M128.306351,195.145276 C128.750788,194.817413 129.376861,194.911914 129.704724,195.356351 C130.016194,195.778566 129.94648,196.364708 129.557681,196.703368 L129.493649,196.754724 L126.443649,199.004724 C126.113576,199.24822 125.671234,199.263954 125.326697,199.052175 L125.254441,199.003312 L122.354441,196.853312 C121.910784,196.524394 121.81777,195.898098 122.146688,195.454441 C122.45916,195.032967 123.040016,194.927948 123.4777,195.200506 L123.545559,195.246688 L125.851,196.956 L128.306351,195.145276 Z" id="Path" fill="#E5E7EA" fill-rule="nonzero"></path><path d="M278.55,386.05 L279.1,379.4 L276.3,370.55 C276.3,370.55 273.4,378.9 267.1,384.85 C270.934529,385.055791 274.756124,385.456308 278.55,386.05 Z" id="Path" fill="url(#linearGradient-9)" fill-rule="nonzero" style="mix-blend-mode: multiply;"></path><circle id="Oval" fill="#CCE7FF" fill-rule="nonzero" opacity="0.3" style="mix-blend-mode: multiply;" cx="163.15" cy="264.3" r="17.05"></circle><circle id="Oval" fill="url(#linearGradient-10)" fill-rule="nonzero" cx="161.95" cy="261.95" r="17.05"></circle><path d="M167.942893,256.892893 C168.333418,256.502369 168.966582,256.502369 169.357107,256.892893 C169.727077,257.262864 169.746549,257.850606 169.415523,258.243499 L169.357107,258.307107 L160.257107,267.407107 C159.888648,267.775566 159.303812,267.796593 158.910671,267.469008 L158.846992,267.411182 L154.496992,263.111182 C154.104217,262.722922 154.100557,262.089767 154.488818,261.696992 C154.856643,261.32489 155.444263,261.30202 155.839064,261.63077 L155.903008,261.688818 L159.5455,265.2895 L167.942893,256.892893 Z" id="Path" fill="#FFFFFF" fill-rule="nonzero"></path><path d="M54.4,77.6 L54.4,78.4 C54.4142847,78.5277442 54.3732587,78.6554995 54.2872697,78.7510428 C54.2012808,78.8465861 54.0785379,78.9007962 53.95,78.9 C53.8222558,78.9142847 53.6945005,78.8732587 53.5989572,78.7872697 C53.5034139,78.7012808 53.4492038,78.5785379 53.45,78.45 L53.45,77.6 C52.4527824,77.6004075 51.4843284,77.2658506 50.7,76.65 C50.5479831,76.5063893 50.4582436,76.3089622 50.45,76.1 C50.45,75.9276093 50.5184819,75.7622792 50.6403806,75.6403806 C50.7622792,75.5184819 50.9276093,75.45 51.1,75.45 L51.5,75.55 C52.0506332,76.0135527 52.7324622,76.2932774 53.45,76.35 L53.45,73.35 C52,73.05 50.55,72.55 50.5,70.8 C50.45,69.05 51.6,68.3 53.3,68.15 L53.3,67.3 C53.3,67.0238576 53.5238576,66.8 53.8,66.8 C54.0659168,66.8232519 54.2767481,67.0340832 54.3,67.3 L54.3,68.15 C55.1266615,68.1949775 55.9238629,68.4722649 56.6,68.95 C56.7663804,69.0884491 56.8736755,69.2851568 56.9,69.5 C56.9,69.8589851 56.6089851,70.15 56.25,70.15 L55.85,70.05 C55.4113491,69.7127875 54.8960052,69.4894719 54.35,69.4 L54.35,72.1 C55.8,72.45 57.3,72.95 57.35,74.8 C57.4,76.65 56.5,77.4 54.4,77.6 Z M53.3,71.85 L53.3,69.4 C52.4,69.45 51.85,70 51.85,70.7 C51.85,71.4 52.45,71.65 53.3,71.85 Z M55.9,74.95 C55.85,74.15 55.2,73.85 54.3,73.6 L54.4,76.35 C55.5,76.2 55.9,75.5 55.9,74.95 Z" id="Shape" fill="#CCE7FF" fill-rule="nonzero"></path><g id="Group" opacity="0.5" transform="translate(116.500000, 133.500000)" fill="#FFFFFF" fill-rule="nonzero"><path d="M6.26113739,0.500082699 C6.65094246,0.505871883 6.96686641,0.808040666 6.997557,1.18886436 L6.9999173,1.26113739 L6.8499173,11.3611374 C6.84376629,11.7753053 6.5030305,12.1060683 6.08886261,12.0999173 C5.69905754,12.0941281 5.38313359,11.7919593 5.352443,11.4111356 L5.3500827,11.3388626 L5.5000827,1.23886261 C5.50623371,0.824694725 5.8469695,0.493931691 6.26113739,0.500082699 Z" id="Path"></path><path d="M1.15746232,5.50003713 L11.2074623,5.60003713 C11.6216554,5.60415845 11.9540842,5.94326926 11.9499629,6.35746232 C11.946084,6.74729108 11.645467,7.064692 11.2647983,7.09724843 L11.1925377,7.09996287 L1.14253768,6.99996287 C0.728344624,6.99584155 0.395915801,6.65673074 0.400037125,6.24253768 C0.403916018,5.85270892 0.704533002,5.535308 1.08520173,5.50275157 L1.15746232,5.50003713 Z" id="Path"></path></g><circle id="Oval" stroke="#FFFFFF" stroke-width="1.5" opacity="0.5" stroke-linecap="round" stroke-linejoin="round" cx="354.45" cy="242" r="3.8"></circle><path d="M418.76967,176.46967 C419.062563,176.176777 419.537437,176.176777 419.83033,176.46967 C420.104917,176.744257 420.122079,177.178789 419.881815,177.473369 L419.83033,177.53033 L411.33033,186.03033 C411.037437,186.323223 410.562563,186.323223 410.26967,186.03033 C409.995083,185.755743 409.977921,185.321211 410.218185,185.026631 L410.26967,184.96967 L418.76967,176.46967 Z" id="Path" fill="#CCE7FF" fill-rule="nonzero"></path><circle id="Oval" fill="#CCE7FF" fill-rule="nonzero" cx="411.9" cy="177.05" r="1.65"></circle><circle id="Oval" fill="#CCE7FF" fill-rule="nonzero" cx="418.4" cy="184.7" r="1.65"></circle><ellipse id="Oval" fill="#436DB5" fill-rule="nonzero" opacity="0.3" transform="translate(182.824527, 205.996490) rotate(-44.100000) translate(-182.824527, -205.996490) " cx="182.824527" cy="205.99649" rx="1.3" ry="2.4"></ellipse></g></g></g></svg> 