<?xml version="1.0" encoding="UTF-8"?> <svg xmlns="http://www.w3.org/2000/svg" xmlns:xlink="http://www.w3.org/1999/xlink" width="381px" height="386px" viewBox="0 0 381 386" version="1.1"><!-- Generator: Sketch 52.6 (67491) - http://www.bohemiancoding.com/sketch --><title>homepage_Capital</title><desc>Created with Sketch.</desc><defs><linearGradient x1="81.2946078%" y1="44.42749%" x2="44.1495098%" y2="-0.416334661%" id="linearGradient-1"><stop stop-color="#0D2748" stop-opacity="0" offset="0%"></stop><stop stop-color="#0D2748" offset="100%"></stop></linearGradient><linearGradient x1="2291.91404%" y1="-10.5654102%" x2="2358.75463%" y2="24.4013304%" id="linearGradient-2"><stop stop-color="#0D2748" stop-opacity="0" offset="0%"></stop><stop stop-color="#0D2748" offset="100%"></stop></linearGradient><linearGradient x1="27.5643909%" y1="62.9596019%" x2="-143.177706%" y2="147.118374%" id="linearGradient-3"><stop stop-color="#6ADFFC" offset="0%"></stop><stop stop-color="#05C2F0" offset="100%"></stop></linearGradient><linearGradient x1="-96.9064748%" y1="-73.7769784%" x2="286.582734%" y2="249.460432%" id="linearGradient-4"><stop stop-color="#F4BD43" offset="0%"></stop><stop stop-color="#EA4969" offset="100%"></stop></linearGradient><linearGradient x1="85.2669492%" y1="29.9923598%" x2="34.5381356%" y2="62.7093187%" id="linearGradient-5"><stop stop-color="#6ADFFC" offset="0%"></stop><stop stop-color="#05C2F0" offset="100%"></stop></linearGradient><linearGradient x1="155.944981%" y1="8.1772009%" x2="-5.45590175%" y2="81.8792325%" id="linearGradient-6"><stop stop-color="#6ADFFC" offset="0%"></stop><stop stop-color="#05C2F0" offset="100%"></stop></linearGradient><linearGradient x1="-24.0066445%" y1="-91.5283843%" x2="239.229236%" y2="427.467249%" id="linearGradient-7"><stop stop-color="#F4BD43" offset="0%"></stop><stop stop-color="#EA4969" offset="100%"></stop></linearGradient><linearGradient x1="-52.0938023%" y1="-212.013889%" x2="205.393635%" y2="448.263889%" id="linearGradient-8"><stop stop-color="#F4BD43" offset="0%"></stop><stop stop-color="#EA4969" offset="100%"></stop></linearGradient><linearGradient x1="86.0380952%" y1="28.8912207%" x2="0.971428571%" y2="71.4935292%" id="linearGradient-9"><stop stop-color="#6ADFFC" offset="0%"></stop><stop stop-color="#05C2F0" offset="100%"></stop></linearGradient><linearGradient x1="42.0603685%" y1="29.751004%" x2="106.775747%" y2="115.759036%" id="linearGradient-10"><stop stop-color="#6ADFFC" offset="0%"></stop><stop stop-color="#05C2F0" offset="100%"></stop></linearGradient></defs><g id="Final-Homepage-+-Styles" stroke="none" stroke-width="1" fill="none" fill-rule="evenodd"><g id="Homepage---How-it-works-3" transform="translate(-449.000000, -248.000000)"><g id="homepage_Capital" transform="translate(449.000000, 248.000000)"><path d="M30.555,85.635 L30.555,86.355 C30.5340733,86.5943251 30.3443251,86.7840733 30.105,86.805 C29.8730349,86.8061625 29.6781939,86.6308056 29.655,86.4 L29.655,85.635 C28.7372919,85.6291798 27.8487688,85.3118501 27.135,84.735 C26.9904358,84.6312353 26.9062732,84.4629102 26.91,84.285 C26.91,84.1298484 26.9716338,83.9810513 27.0813425,83.8713425 C27.1910513,83.7616338 27.3398484,83.7 27.495,83.7 L27.855,83.79 C28.3505699,84.2071974 28.9642159,84.4589497 29.61,84.51 L29.61,81.81 C28.35,81.495 27,81.09 26.955,79.515 C26.91,77.94 27.945,77.265 29.52,77.13 L29.52,76.365 C29.52,76.1164719 29.7214719,75.915 29.97,75.915 C30.2019651,75.9138375 30.3968061,76.0891944 30.42,76.32 L30.42,77.13 C31.1680607,77.1490301 31.8915998,77.4006958 32.49,77.85 C32.6460057,77.9489528 32.7461032,78.1157819 32.76,78.3 C32.7725602,78.4627895 32.7165172,78.6234208 32.6054177,78.7430665 C32.4943182,78.8627121 32.3382726,78.9304838 32.175,78.93 L31.815,78.84 C31.4304108,78.5195742 30.9617885,78.3165045 30.465,78.255 L30.465,80.685 C31.77,81 33.12,81.45 33.165,83.07 C33.21,84.69 32.445,85.41 30.555,85.635 Z M29.565,80.46 L29.565,78.21 C28.8,78.3 28.26,78.75 28.26,79.425 C28.26,80.1 28.845,80.28 29.565,80.46 Z M31.905,83.205 C31.905,82.53 31.275,82.26 30.51,82.035 L30.51,84.51 C31.545,84.375 31.905,83.745 31.905,83.205 Z" id="Shape" fill="#CCE7FF" fill-rule="nonzero"></path><rect id="Rectangle" fill="#CCE7FF" fill-rule="nonzero" x="57.51" y="25.155" width="134.82" height="283.3605"></rect><rect id="Rectangle" fill="#CCE7FF" fill-rule="nonzero" x="201.105" y="25.155" width="134.82" height="283.3605"></rect><g id="Group" opacity="0.6" transform="translate(0.000000, 14.850000)" fill="#FFFFFF" fill-rule="nonzero"><g id="Path" opacity="0.25"><polygon points="53.325 180.855 29.565 180.855 139.95 0.27 163.665 0.27 54.225 180.855"></polygon><polygon points="203.355 295.515 338.217636 74.475 358.557636 74.475 223.695 295.515"></polygon><polygon points="232.47 295.515 340.72165 118.125 371.99665 118.125 263.79 295.515"></polygon><polygon points="81.36 295.515 0 295.515 180.315 0.27 261.675 0.27"></polygon></g><g id="Path" opacity="0.25"><polygon points="47.4074151 192.645 23.6474151 192.645 139.95 0.27 163.665 0.27 47.5742662 192.645"></polygon><polygon points="203.355 295.515 340.2 70.9973881 360.54 70.9973881 223.695 295.515"></polygon><polygon points="232.47 295.515 340.72165 118.125 371.99665 118.125 263.79 295.515"></polygon><polygon points="0 295.515 180.315 0.27 261.675 0.27 81.36 295.515"></polygon></g></g><path d="M232.02,114.615 C232.02,114.615 240.75,113.085 240.705,103.905 C240.66,98.46 236.43,97.245 236.43,97.245 C236.43,97.245 243.675,87.48 233.37,79.515 C226.755,73.935 216.225,79.74 216.225,79.74 C216.225,79.74 214.02,74.295 206.46,75.06 C201.105,75.555 199.755,81.27 199.755,81.27 C199.755,81.27 188.55,77.535 181.395,88.74 C175.005,98.73 184.455,111.69 184.455,111.69 C182.563725,115.347742 182.334285,119.641541 183.825,123.48 C185.355,127.485 191.7,129.465 191.7,129.465 L232.02,114.615 Z" id="Path" fill="#0D2748" fill-rule="nonzero"></path><path d="M231.48,108.54 L231.39,100.935 C233.291144,100.039682 235.002251,98.7869072 236.43,97.245 C236.43,97.245 239.94,98.235 240.57,102.555 L231.48,108.54 Z" id="Path" fill="url(#linearGradient-1)" fill-rule="nonzero" style="mix-blend-mode: multiply;"></path><path d="M181.395,88.74 C177.705,97.02 183.42,108.36 190.8,107.19 C198.18,106.02 199.26,116.145 199.26,116.145 L198.135,119.385 C195.157368,119.354848 192.180968,119.520204 189.225,119.88 C189.225,119.88 190.35,123.84 191.295,129.33 C189.9,128.835 185.13,126.855 183.825,123.48 C182.334285,119.641541 182.563725,115.347742 184.455,111.69 C184.455,111.69 175.005,98.73 181.395,88.74 Z" id="Path" fill="url(#linearGradient-2)" fill-rule="nonzero" style="mix-blend-mode: multiply;"></path><path d="M151.11,321.615 C150.795,325.35 164.835,325.98 166.77,323.37 C168.705,320.76 163.08,307.26 163.08,307.26 L154.035,313.29 C154.035,313.29 151.47,317.835 151.11,321.615 Z" id="Path" fill="#05C2F0" fill-rule="nonzero"></path><path d="M151.11,321.615 C150.795,325.35 164.835,325.98 166.77,323.37 C168.705,320.76 163.08,307.26 163.08,307.26 L154.035,313.29 C154.035,313.29 151.47,317.835 151.11,321.615 Z" id="Path" fill="#05C2F0" fill-rule="nonzero" style="mix-blend-mode: multiply;"></path><path d="M197.775,369.765 L207.18,324.675 L221.67,370.26 L222.3,371.925 C222.3,371.925 233.64,374.22 249.57,373.725 C265.5,373.23 271.35,370.125 271.35,370.125 L252.45,274.905 L211.41,278.415 C207.529689,278.684944 203.635311,278.684944 199.755,278.415 L159.84,274.905 L148.59,372.465 C162.9,368.415 181.395,368.55 197.775,369.765 Z" id="Path" fill="#0D2748" fill-rule="nonzero"></path><path d="M250.11,173.025 L260.775,239.49 C261.81,246.06 260.01,251.82 252.855,252.135 L249.075,251.595 C243.18,251.865 238.275,248.895 237.33,243.54 L225.45,176.715 C224.01,168.525 236.205,162.855 236.205,162.855 C240.435,164.07 249.435,168.93 250.11,173.025 Z" id="Path" fill="#BF7D51" fill-rule="nonzero"></path><path d="M234.81,154.755 C251.595,162.54 258.21,174.285 260.595,198.045 C261.54,207.27 262.395,213.93 263.43,224.1 C259.335,215.955 247.185,226.35 239.04,224.325 C225.945,221.13 234.81,154.755 234.81,154.755 Z" id="Path" fill="url(#linearGradient-3)" fill-rule="nonzero"></path><path d="M297.765,185.4 C299.835,183.195 304.335,177.48 304.56,176.895 C304.785,176.31 306.045,169.83 306.045,169.83 C306.045,169.83 309.33,169.38 309.105,167.04 C308.97,166.275 306.09,165.915 306.09,165.915 L306.18,165.375 C306.18,165.375 310.275,164.115 310.185,161.55 C309.96,160.2 306.09,160.965 306.09,160.965 L287.325,165.15 L287.01,173.925 L287.145,179.82 L297.765,185.4 Z" id="Path" fill="#BF7D51" fill-rule="nonzero"></path><rect id="Rectangle" fill="#0D2748" fill-rule="nonzero" transform="translate(298.067886, 160.762178) rotate(-81.800000) translate(-298.067886, -160.762178) " x="278.537886" y="151.037678" width="39.06" height="19.449" rx="2.745"></rect><path d="M293.49,141.165 L295.56,141.435 L305.91,142.92 L307.35,143.145 C308.280623,143.283961 308.924126,144.148668 308.79,145.08 L304.02,178.38 C303.964106,178.835234 303.727679,179.248931 303.363826,179.528167 C302.999973,179.807403 302.539198,179.928768 302.085,179.865 L288.225,177.885 C287.269657,177.745797 286.606138,176.861106 286.74,175.905 L291.51,142.605 C291.670941,141.667886 292.548888,141.029379 293.49,141.165 Z" id="Path" fill="#FFFFFF" fill-rule="nonzero"></path><path d="M276.525,191.34 C276.525,191.34 279.63,186.03 280.53,184.23 C280.575,184.05 281.115,171.495 281.52,169.605 C281.925,167.715 284.04,160.83 284.22,160.38 C284.4,159.93 288.225,153.27 288.45,153 C288.675,152.73 290.835,154.665 290.025,157.815 L288.675,162.72 L287.865,167.895 C287.865,167.895 291.51,173.475 290.475,178.065 C290.295,179.235 300.33,182.565 298.305,184.86 C296.28,187.155 292.095,190.17 291.735,190.935 C291.375,191.7 287.82,197.415 287.82,197.415 C287.82,197.415 274.095,196.425 276.525,191.34 Z" id="Path" fill="#BF7D51" fill-rule="nonzero"></path><path d="M303.885,173.205 C304.2,172.485 304.74,171.54 305.415,171.18 C305.937539,170.885473 306.589858,170.957953 307.035,171.36 C307.215,171.63 308.025,172.71 307.53,173.655 C307.035,174.6 305.28,175.23 304.425,174.69 C303.903747,174.395622 303.674589,173.765437 303.885,173.205 Z" id="Path" fill="#BF7D51" fill-rule="nonzero"></path><circle id="Oval" fill="url(#linearGradient-4)" fill-rule="nonzero" cx="298.035" cy="159.795" r="6.255"></circle><polyline id="Path" stroke="#FFFFFF" stroke-width="0.9" opacity="0.75" stroke-linecap="round" stroke-linejoin="round" points="295.335 159.345 297.27 161.685 301.365 158.4"></polyline><path d="M245.205,249.21 C247.652758,251.503962 251.02117,252.541756 254.335494,252.023069 C257.649818,251.504382 260.540115,249.487108 262.17,246.555 L291.735,190.935 L280.665,183.6 L243.81,234.9 C240.612565,239.342718 241.209729,245.468458 245.205,249.21 Z" id="Path" fill="#BF7D51" fill-rule="nonzero"></path><path d="M241.425,158.4 C213.795,141.975 192.195,140.445 158.535,161.19 C142.335,169.785 162,230.58 151.11,321.75 C160.335,302.085 180.315,345.78 257.31,312.57 C255.33,285.57 251.01,269.415 249.84,255.24 C247.635,228.06 249.705,215.1 250.785,195.21 C251.415,183.33 250.11,163.53 241.425,158.4 Z" id="Path" fill="url(#linearGradient-5)" fill-rule="nonzero"></path><path d="M250.11,255.735 C250.11,255.735 250.605,210.24 245.745,184.14 C243.855,174.015 230.85,151.74 220.905,146.475 C215.685,143.73 214.785,144.495 215.955,147.825 C221.895,150.03 233.55,165.33 237.555,178.785 C237.105,180.495 229.68,182.88 222.795,183.375 C207.9,184.5 192.015,182.475 192.015,182.475 C192.015,182.475 187.02,162.27 191.925,147.24 C192.285,146.115 192.195,144 192.195,143.37 C188.64,142.245 186.39,147.825 186.39,147.825 C186.39,147.825 181.44,162.72 185.625,183.33 C186.75,200.655 169.875,253.98 166.14,265.59 C164.07,265.995 160.29,266.49 154.17,266.22 C153.859635,266.207833 153.55717,266.319576 153.329261,266.530602 C153.101353,266.741628 152.966708,267.034618 152.955,267.345 L152.775,270.855 C152.749827,271.16863 152.857145,271.47847 153.070913,271.70934 C153.284681,271.940209 153.585363,272.071009 153.9,272.07 L157.41,272.16 C160.073157,272.175938 162.734309,272.010555 165.375,271.665 C165.195,277.155 163.755,283.275 159.615,348.48 C159.507119,350.264609 160.809662,351.823714 162.585,352.035 C251.64,361.485 269.73,353.295 269.73,353.295 L250.11,255.735 Z" id="Path" fill="#057EF0" fill-rule="nonzero"></path><path d="M174.375,272.16 C182.385,267.75 205.38,245.79 221.22,234 C226.89,229.77 233.01,231.57 239.04,227.115 C243.63,223.695 248.58,215.19 247.23,210.015 C245.88,204.84 232.02,205.56 232.02,205.56 L154.845,251.28 L154.305,252.315 C154.395,258.84 154.395,265.68 154.215,272.79 C157.95,275.715 164.97,277.38 174.375,272.16 Z" id="Path" fill="#057EF0" fill-rule="nonzero" opacity="0.2" style="mix-blend-mode: multiply;"></path><path d="M210.915,160.65 C206.262907,161.258508 201.552806,160.085001 197.73,157.365 C194.58,155.115 191.655,152.055 191.925,148.725 C193.14,133.47 190.53,123.165 190.53,123.165 L216.585,123.255 L217.17,153.27 C217.252785,156.958354 214.567044,160.127142 210.915,160.65 Z" id="Path" fill="#BF7D51" fill-rule="nonzero"></path><path d="M216.63,127.395 L216.405,127.125 L216.27,126.99 L216,126.72 L215.865,126.585 L215.55,126.315 C215.505,126.27 215.505,126.225 215.46,126.225 L215.01,125.865 L214.875,125.775 L192.78,125.775 C194.67,127.485 197.64,129.69 197.865,130.86 C199.44,140.625 206.505,151.605 216.765,155.925 C217.05937,155.10289 217.196751,154.232814 217.17,153.36 L216.72,129.825 L216.63,127.485 L216.63,127.395 Z" id="Path" fill="#A06645" fill-rule="nonzero"></path><path d="M188.595,107.145 C189.495,94.095 196.425,86.22 209.07,85.86 C220.725,85.5 230.4,92.88 231.93,103.77 C233.46,114.66 230.94,142.785 218.295,143.19 C200.475,143.73 187.785,128.835 188.595,107.145 Z" id="Path" fill="#BF7D51" fill-rule="nonzero"></path><path d="M200.43,116.55 C202.095,116.64 204.75,115.785 205.74,110.88 C206.017623,109.48547 206.183151,108.070951 206.235,106.65 C206.321018,105.302597 207.025716,104.070837 208.143659,103.313805 C209.261602,102.556773 210.666945,102.359686 211.95,102.78 C213.937843,103.516881 216.039986,103.897704 218.16,103.905 C232.47,103.455 235.215,97.65 235.215,97.65 L230.22,93.105 L214.335,82.755 L192.285,85.95 L185.58,95.58 L185.22,115.695 C185.22,115.695 189.54,117.45 190.215,117.405 L200.43,116.55 Z" id="Path" fill="#0D2748" fill-rule="nonzero"></path><path d="M187.065,118.71 C187.29,123.705 190.53,127.62 194.265,127.44 C198,127.26 199.935,124.29 199.665,119.295 C199.395,114.3 196.785,110.16 193.05,110.34 C189.315,110.52 186.795,113.715 187.065,118.71 Z" id="Path" fill="#BF7D51" fill-rule="nonzero"></path><path d="M214.47,213.435 C214.47,213.435 218.025,211.095 218.385,210.735 C220.05,208.845 221.31,206.235 222.93,202.005 C224.55,197.775 226.44,192.42 225.81,188.235 C225.45,186.975 227.025,186.3 228.375,188.1 C229.59262,189.794208 230.152422,191.873473 229.95,193.95 C229.77,195.3 229.59,196.47 229.545,197.505 C229.545,197.595 241.965,191.745 242.505,191.43 C243.045,191.115 251.37,188.1 251.865,187.875 C252.36,187.65 254.115,190.17 250.11,191.925 C248.145752,192.850179 246.276832,193.965502 244.53,195.255 L239.985,198.45 L244.35,202.365 C244.925559,202.869635 245.107661,203.689094 244.8,204.39 L244.62,205.74 C244.901466,206.248211 244.966349,206.848377 244.8,207.405 L244.44,208.575 L244.665,209.475 C244.904368,210.274789 244.616368,211.138789 243.945,211.635 L242.46,212.715 C241.867405,213.194334 241.081404,213.361568 240.345,213.165 L238.455,212.715 C238.455,212.715 234,218.16 227.925,219.33 C227.835,219.285 220.905,223.695 220.905,223.695 L214.47,213.435 Z" id="Path" fill="#BF7D51" fill-rule="nonzero"></path><path d="M293.715,82.755 C293.715,60.705 313.2,42.795 337.23,42.795 C361.26,42.795 380.79,60.705 380.79,82.755 C380.79,104.805 361.305,122.67 337.23,122.67 L307.485,122.67 L295.92,128.07 C295.434948,128.309112 294.8597,128.274404 294.406915,127.978708 C293.954131,127.683012 293.691077,127.170257 293.715,126.63 L293.715,122.67 L293.715,82.755 Z" id="Path" fill="#057EF0" fill-rule="nonzero"></path><path d="M336.645,96.84 L336.645,99.225 C336.645,99.9954372 336.020437,100.62 335.25,100.62 C334.479563,100.62 333.855,99.9954372 333.855,99.225 L333.855,96.885 C330.94226,96.7754399 328.145192,95.7166628 325.89,93.87 C325.268576,93.3510056 325.035971,92.4999921 325.307012,91.7370634 C325.578052,90.9741346 326.295426,90.4606134 327.105,90.45 C327.512216,90.468688 327.904313,90.6098426 328.23,90.855 C329.850078,92.1598884 331.794401,92.9998358 333.855,93.285 L333.855,84.6 C329.805,83.565 325.53,82.125 325.53,77.13 C325.53,73.035 328.905,69.975 333.855,69.615 L333.855,67.14 C333.855,66.3695628 334.479563,65.745 335.25,65.745 C336.020437,65.745 336.645,66.3695628 336.645,67.14 L336.645,69.66 C339.023331,69.8203228 341.304747,70.664134 343.215,72.09 C343.690419,72.4759959 343.970527,73.0526877 343.98,73.665 C343.992127,74.162074 343.803111,74.6430012 343.455783,74.9988003 C343.108455,75.3545995 342.632222,75.5551479 342.135,75.555 C341.729669,75.5685915 341.33214,75.4413823 341.01,75.195 C339.75434,74.179127 338.245005,73.5256005 336.645,73.305 L336.645,81.045 C340.785,82.17 345.15,83.655 345.15,88.92 C345.15,92.745 342.675,96.345 336.645,96.84 Z M333.855,80.28 L333.855,73.125 C331.29,73.35 329.625,74.745 329.625,76.815 C329.625,78.885 331.47,79.605 333.855,80.28 Z M341.1,89.28 C341.1,87.03 339.165,86.13 336.645,85.365 L336.645,93.285 C339.93,92.925 341.1,90.945 341.1,89.28 Z" id="Shape" fill="#FFFFFF" fill-rule="nonzero"></path><path d="M145.395,231.975 C146.79,238.05 177.12,229.41 176.58,214.335 C176.04,199.26 154.8,209.52 154.8,209.52 L146.115,224.325 L145.395,231.975 Z" id="Path" fill="#05C2F0" fill-rule="nonzero"></path><path d="M150.795,178.335 L148.14,250.92 C148.022408,254.341115 149.38067,257.647791 151.869095,259.998448 C154.357521,262.349106 157.736117,263.51704 161.145,263.205 C167.013157,262.654982 171.590841,257.885763 171.9,252 L175.725,178.83 C175.940176,174.66865 173.959404,170.698764 170.505132,168.368282 C167.050861,166.0378 162.628112,165.687445 158.85,167.445 L157.68,167.985 C153.633063,169.879477 150.978269,173.870344 150.795,178.335 Z" id="Path" fill="#BF7D51" fill-rule="nonzero"></path><path d="M174.78,195.705 L150.12,196.83 L148.815,232.155 C150.885,230.175 155.34,229.5 158.58,229.365 C166.05,229.05 170.1,228.33 173.25,225.72 C173.25,225.695147 173.270147,225.675 173.295,225.675 L174.825,196.515 C174.78,195.975 174.78,195.705 174.78,195.705 Z" id="Path" fill="#A06645" fill-rule="nonzero"></path><path d="M175.41,152.235 C163.35,157.275 150.435,162.675 148.41,176.22 C144.36,202.59 144.585,220.095 145.395,231.975 C146.385,219.195 169.47,227.655 177.12,221.355 C180.54,197.145 175.41,152.235 175.41,152.235 Z" id="Path" fill="url(#linearGradient-6)" fill-rule="nonzero"></path><path d="M149.22,255.825 C150.641172,259.31304 153.528594,261.99657 157.11119,263.158962 C160.693787,264.321354 164.6067,263.844228 167.805,261.855 L223.155,222.345 C227.475,219.645 227.385,219.33 224.37,215.19 C221.895,211.77 221.22,208.89 217.305,211.41 L155.61,239.58 C149.519965,242.453855 146.719944,249.572217 149.22,255.825 Z" id="Path" fill="#BF7D51" fill-rule="nonzero"></path><path d="M360.54,160.965 L360.45,170.055" id="Path" stroke="#CCE7FF" stroke-width="1.35" stroke-linecap="round" stroke-linejoin="round"></path><path d="M364.995,165.555 L355.95,165.465" id="Path" stroke="#CCE7FF" stroke-width="1.35" stroke-linecap="round" stroke-linejoin="round"></path><circle id="Oval" stroke="#FFFFFF" stroke-width="1.35" opacity="0.6" stroke-linecap="round" stroke-linejoin="round" cx="120.375" cy="96.12" r="3.42"></circle><path d="M220.185,1.665 L212.535,9.27" id="Path" stroke="#CCE7FF" stroke-width="1.35" stroke-linecap="round" stroke-linejoin="round"></path><circle id="Oval" fill="#CCE7FF" fill-rule="nonzero" cx="213.525" cy="1.71" r="1.485"></circle><circle id="Oval" fill="#CCE7FF" fill-rule="nonzero" cx="219.33" cy="8.595" r="1.485"></circle><g id="Group" opacity="0.6" transform="translate(297.900000, 261.900000)"><path d="M8.19,1.665 L0.495,9.27" id="Path" stroke="#FFFFFF" stroke-width="1.35" stroke-linecap="round" stroke-linejoin="round"></path><circle id="Oval" fill="#FFFFFF" fill-rule="nonzero" cx="1.53" cy="1.71" r="1.485"></circle><circle id="Oval" fill="#FFFFFF" fill-rule="nonzero" cx="7.335" cy="8.64" r="1.485"></circle></g><path d="M93.87,131.31 C93.87,129.15 91.98,127.395 89.595,127.395 L28.98,127.395 C26.64,127.395 24.705,129.15 24.705,131.31 L24.705,192.15 C24.705,195.977333 27.8076667,199.08 31.635,199.08 L86.94,199.08 C90.7673333,199.08 93.87,195.977333 93.87,192.15 L93.87,148.005 L93.87,131.31 Z" id="Path" fill="#CCE7FF" fill-rule="nonzero" opacity="0.15" style="mix-blend-mode: multiply;"></path><rect id="Rectangle" fill="#FFFFFF" fill-rule="nonzero" x="22.095" y="122.535" width="67.725" height="71.6985" rx="6.3"></rect><path d="M85.59,122.535 L26.37,122.535 C23.985,122.535 22.095,124.29 22.095,126.45 L22.095,143.145 L89.82,143.145 L89.82,126.45 C89.82,124.29 87.93,122.535 85.59,122.535 Z" id="Path" fill="url(#linearGradient-7)" fill-rule="nonzero"></path><rect id="Rectangle" fill="url(#linearGradient-8)" fill-rule="nonzero" opacity="0.4" style="mix-blend-mode: multiply;" x="42.48" y="129.735" width="26.865" height="6.48"></rect><g id="Group" opacity="0.75" transform="translate(37.800000, 154.350000)" fill="#E5E7EA" fill-rule="nonzero"><path d="M9.45,0 C15.84,0 18.72,5.76 18.72,11.565 C18.72,17.37 15.84,23.13 9.45,23.13 C3.06,23.13 0.18,17.325 0.18,11.565 C0.18,5.805 3.015,0 9.45,0 Z M9.45,4.23 C6.21,4.23 4.995,7.425 4.995,11.565 C4.995,15.705 6.21,18.9 9.45,18.9 C12.69,18.9 13.86,15.66 13.86,11.565 C13.86,7.47 12.645,4.23 9.45,4.23 Z" id="Shape"></path><path d="M27.9,20.565 L27.9,6.48 L25.47,9 C24.9881754,9.57174324 24.2253733,9.82330905 23.4979566,9.65036358 C22.7705398,9.47741811 22.2025819,8.90946018 22.0296364,8.18204344 C21.8566909,7.4546267 22.1082568,6.69182458 22.68,6.21 L27.945,0.9 C28.4903322,0.379033215 29.2158168,0.0888393596 29.97,0.09 C31.4759264,0.114099425 32.6909006,1.32907362 32.715,2.835 L32.715,20.565 C32.5501021,21.7683158 31.5220618,22.6650852 30.3075,22.6650852 C29.0929382,22.6650852 28.0648979,21.7683158 27.9,20.565 Z" id="Path"></path></g><g id="Group" transform="translate(25.650000, 250.650000)" fill-rule="nonzero"><path d="M52.56,134.955 C55.89,134.1 62.055,132.435 66.015,130.725 C71.685,128.25 79.11,124.155 83.565,106.56 C88.02,88.965 90.585,77.715 90.585,77.715 C90.585,77.715 80.1,87.075 73.935,90.63 C67.77,94.185 48.465,105.57 47.43,116.01 C46.53,124.83 49.14,132.615 49.95,134.865 L52.56,134.955 Z" id="Path" fill="#05C2F0"></path><path d="M86.805,21.375 C85.86,26.46 84.555,33.93 84.6,36.54 C84.6,36.54 83.565,29.25 83.295,23.715 C77.445,28.17 66.96,37.845 61.065,46.17 C61.29,51.525 61.875,61.74 63.18,66.465 C60.799524,61.8353423 58.9719638,56.9417101 57.735,51.885 C57.5075478,52.4127239 57.3121918,52.9537098 57.15,53.505 C52.965,67.41 55.305,84.015 56.07,88.65 C53.01,92.79 45.63,103.905 43.2,117.225 C42.345,121.95 41.805,128.115 41.445,134.64 L42.75,134.64 C43.11,128.205 43.65,122.085 44.505,117.405 C46.845,104.58 53.865,93.825 56.97,89.595 C60.435,88.155 76.275,80.55 82.53,72.9 C88.785,65.25 98.01,46.53 102.465,34.47 C98.325,37.125 93.645,39.915 91.53,40.32 C91.53,40.32 98.19,36 103.41,31.815 L104.175,29.25 C107.145,18.45 109.215,11.295 112.32,5.985 C112.32,6.03 92.43,18.18 86.805,21.375 Z" id="Path" fill="url(#linearGradient-9)"></path><path d="M37.935,122.265 C37.935,122.265 49.05,101.25 50.175,79.02 C51.3,56.79 49.095,47.07 37.26,29.79 C25.425,12.51 25.515,0.315 25.515,0.315 C21.6751289,7.99721956 18.976706,16.198606 17.505,24.66 C15.03,38.745 21.915,101.745 37.935,122.265 Z" id="Path" fill="#05C2F0"></path><path d="M42.75,134.685 C41.58,129.51 40.14,124.785 39.06,121.455 C39.285,120.825 39.555,120.015 39.87,118.935 C42.345,110.745 47.205,90.27 40.095,73.53 C39.1356353,71.2893244 38.0385389,69.1101603 36.81,67.005 C36.27,72.135 35.145,79.2 33.12,83.34 C33.12,83.34 34.02,69.975 33.795,62.055 C29.34,55.26 23.805,48.33 18.495,42.165 L14.985,38.205 L15.75,48.015 L12.51,35.46 C5.49,27.855 0.045,22.635 0.045,22.635 C0.374964403,33.1279315 1.24612252,43.5968489 2.655,54 C6.255,57.78 12.15,63.765 16.155,66.69 C15.525,66.33 8.19,62.19 3.465,59.085 C3.96,62.19 4.59,65.25 5.31,68.13 C6.165,71.82 7.83,76.05 9.9,80.505 C12.825,83.025 19.17,89.73 23.535,92.34 C23.04,92.115 17.64,89.64 13.365,87.3 C21.915,103.005 34.11,119.25 37.89,122.22 C38.97,125.415 40.275,129.87 41.4,134.685 L42.75,134.685 Z" id="Path" fill="url(#linearGradient-10)"></path><path d="M15.975,133.875 L38.385,134.55 C32.58,125.91 24.705,117.09 19.395,114.075 L1.935,104.04 C1.935,104.04 2.79,108.18 4.59,117.81 C5.49,122.58 9.09,128.295 15.975,133.875 Z" id="Path" fill="#05C2F0"></path></g></g></g></g></svg> 