<?xml version="1.0" encoding="UTF-8"?> <svg xmlns="http://www.w3.org/2000/svg" xmlns:xlink="http://www.w3.org/1999/xlink" width="185px" height="157px" viewBox="0 0 185 157" version="1.1"><!-- Generator: Sketch 52.6 (67491) - http://www.bohemiancoding.com/sketch --><title>homepage_LOC</title><desc>Created with Sketch.</desc><defs><linearGradient x1="4.7528545%" y1="27.5317924%" x2="122.823309%" y2="85.3957234%" id="linearGradient-1"><stop stop-color="#F4BD43" offset="0%"></stop><stop stop-color="#EA4969" offset="100%"></stop></linearGradient><linearGradient x1="-51.0332542%" y1="-6.04513064%" x2="82.8622328%" y2="68.1947743%" id="linearGradient-2"><stop stop-color="#6ADFFC" offset="0%"></stop><stop stop-color="#05C2F0" offset="100%"></stop></linearGradient><linearGradient x1="-136.936431%" y1="-3.06826819%" x2="437.816%" y2="158.505574%" id="linearGradient-3"><stop stop-color="#F4BD43" offset="0%"></stop><stop stop-color="#EA4969" offset="100%"></stop></linearGradient><linearGradient x1="-20.2980763%" y1="30.0533082%" x2="554.454072%" y2="191.683546%" id="linearGradient-4"><stop stop-color="#F4BD43" offset="0%"></stop><stop stop-color="#EA4969" offset="100%"></stop></linearGradient><linearGradient x1="-253.552567%" y1="-36.0198139%" x2="321.199582%" y2="125.610424%" id="linearGradient-5"><stop stop-color="#F4BD43" offset="0%"></stop><stop stop-color="#EA4969" offset="100%"></stop></linearGradient><linearGradient x1="-370.168702%" y1="-68.4073438%" x2="204.563205%" y2="93.2221067%" id="linearGradient-6"><stop stop-color="#F4BD43" offset="0%"></stop><stop stop-color="#EA4969" offset="100%"></stop></linearGradient><linearGradient x1="-77.8710136%" y1="10.1471242%" x2="232.093384%" y2="106.89355%" id="linearGradient-7"><stop stop-color="#F4BD43" offset="0%"></stop><stop stop-color="#EA4969" offset="100%"></stop></linearGradient></defs><g id="Final-Homepage-+-Styles" stroke="none" stroke-width="1" fill="none" fill-rule="evenodd"><g id="Homepage---Loan-Types" transform="translate(-1404.000000, -160.000000)"><g id="homepage_LOC" transform="translate(1404.000000, 160.000000)"><path d="M120.428,6.248 C118.624,6.16 116.82,6.116 115.016,6.204 C99.700807,6.74649972 84.3854345,5.13201654 69.52,1.408 C66.6412468,0.666655702 63.6907571,0.238834697 60.72,0.132 C39.82,-0.484 20.988,16.5 19.492,37.4 C19.2766936,40.3958052 19.3947505,43.4062558 19.844,46.376 C21.604,57.816 20.24,69.564 15.312,80.036 C10.4428367,90.357044 8.94946671,101.949906 11.044,113.168 C14.4321584,132.364314 28.1953206,148.093642 46.772,154 C65.736,160.028 84.216,155.54 97.548,144.76 C109.208314,135.333648 122.537261,128.184078 136.84,123.684 C162.228,115.72 175.78,94.644 176.968,68.904 C178.508,36.168 153.164,8.052 120.428,6.248 Z" id="Path" fill="#EEF7FF" fill-rule="nonzero"></path><path d="M165.924,154.396 C165.749763,155.080662 165.304008,155.66474 164.689588,156.013465 C164.075168,156.36219 163.345159,156.445438 162.668,156.244 L50.688,124.256 C49.1470546,123.827998 48.2421918,122.234652 48.664,120.692 L67.848,52.492 C68.2526297,51.0976452 69.7072535,50.291705 71.104,50.688 L182.6,82.06 C183.338677,82.2646353 183.964299,82.7572138 184.336543,83.4272537 C184.708788,84.0972935 184.796498,84.8887122 184.58,85.624 L165.924,154.396 Z" id="Path" fill="url(#linearGradient-1)" fill-rule="nonzero"></path><rect id="Rectangle" fill="#163251" fill-rule="nonzero" transform="translate(122.566931, 82.090793) rotate(-74.300000) translate(-122.566931, -82.090793) " x="115.834931" y="21.3553932" width="13.464" height="121.4708"></rect><polygon id="Path" fill="#FFFFFF" fill-rule="nonzero" points="127.424 76.516 117.876 87.824 111.452 86.02 121.044 74.712"></polygon><polygon id="Path" fill="#FFFFFF" fill-rule="nonzero" points="133.188 78.144 123.64 89.452 120.384 88.528 129.976 77.22"></polygon><polygon id="Path" fill="#FFFFFF" fill-rule="nonzero" points="153.56 83.864 143.968 95.172 140.756 94.248 150.304 82.94"></polygon><rect id="Rectangle" fill="#FFFFFF" fill-rule="nonzero" transform="translate(138.410483, 112.655995) rotate(15.700000) translate(-138.410483, -112.655995) " x="116.300483" y="103.316995" width="44.22" height="18.678"></rect><rect id="Rectangle" fill="#FFFFFF" fill-rule="nonzero" transform="translate(77.203126, 120.053252) rotate(15.708638) translate(-77.203126, -120.053252) " x="59.2786227" y="116.628509" width="35.8490067" height="6.84948586"></rect><rect id="Rectangle" fill="#FFFFFF" fill-rule="nonzero" transform="translate(111.914331, 130.170517) rotate(15.700000) translate(-111.914331, -130.170517) " x="99.0003307" y="126.736317" width="25.828" height="6.8684"></rect><rect id="Rectangle" fill="#203658" fill-rule="nonzero" transform="translate(119.506271, 92.874077) rotate(-74.300000) translate(-119.506271, -92.874077) " x="119.110271" y="32.0814765" width="1" height="121.5852"></rect><circle id="Oval" fill="url(#linearGradient-2)" fill-rule="nonzero" cx="161.568" cy="33.792" r="18.524"></circle><path d="M119.724,103.224 L3.564,104.896 C2.94959731,104.907818 2.35626765,104.671988 1.91762051,104.241618 C1.47897337,103.811247 1.23188636,103.222516 1.232,102.608 L0.22,31.724 C0.219221171,30.2753647 1.36814336,29.087496 2.816,29.04 L118.668,27.368 C119.375764,27.3562023 120.058617,27.6291274 120.563271,28.1255079 C121.067924,28.6218884 121.352098,29.3001379 121.352,30.008 L122.364,100.54 C122.375798,101.247764 122.102873,101.930617 121.606492,102.435271 C121.110112,102.939924 120.431862,103.224098 119.724,103.224 Z" id="Path" fill="#163251" fill-rule="nonzero"></path><rect id="Rectangle" fill="url(#linearGradient-3)" fill-rule="nonzero" transform="translate(48.497843, 70.675921) rotate(-0.800000) translate(-48.497843, -70.675921) " x="37.6298435" y="66.7753213" width="21.736" height="7.8012"></rect><rect id="Rectangle" fill="url(#linearGradient-4)" fill-rule="nonzero" transform="translate(22.897254, 71.033430) rotate(-0.800000) translate(-22.897254, -71.033430) " x="12.0292543" y="67.1328305" width="21.736" height="7.8012"></rect><rect id="Rectangle" fill="url(#linearGradient-5)" fill-rule="nonzero" transform="translate(74.098433, 70.318412) rotate(-0.800000) translate(-74.098433, -70.318412) " x="63.2304326" y="66.4178121" width="21.736" height="7.8012"></rect><rect id="Rectangle" fill="url(#linearGradient-6)" fill-rule="nonzero" transform="translate(99.698407, 69.960907) rotate(-0.800000) translate(-99.698407, -69.960907) " x="88.8304075" y="66.0603072" width="21.736" height="7.8012"></rect><rect id="Rectangle" fill="#FFFFFF" fill-rule="nonzero" transform="translate(54.862696, 41.275323) rotate(-0.800000) translate(-54.862696, -41.275323) " x="38.0546959" y="38.221723" width="33.616" height="6.1072"></rect><rect id="Rectangle" fill="#FFFFFF" fill-rule="nonzero" transform="translate(22.973893, 74.945927) rotate(-0.800000) translate(-22.973893, -74.945927) " x="12.1278931" y="74.3035275" width="21.692" height="1.2848"></rect><rect id="Rectangle" fill="#FFFFFF" fill-rule="nonzero" transform="translate(91.676376, 41.259020) rotate(-0.572939) translate(-91.676376, -41.259020) " x="77.8816863" y="38.2052673" width="27.5893794" height="6.10750535"></rect><rect id="Rectangle" fill="#FFFFFF" fill-rule="nonzero" transform="translate(18.448754, 43.724526) rotate(-45.800000) translate(-18.448754, -43.724526) " x="13.4107539" y="38.6799261" width="10.076" height="10.0892"></rect><path d="M25.96,51.216 L25.784,51.128 L18.568,44.088 C18.468584,43.9889286 18.4127036,43.854352 18.4127036,43.714 C18.4127036,43.573648 18.468584,43.4390714 18.568,43.34 L25.564,36.124 C25.677071,36.0296594 25.8142048,35.9687111 25.96,35.948 C26.100244,35.9400847 26.2341859,36.0070556 26.312,36.124 L33.528,43.12 C33.6334617,43.2130902 33.6974167,43.3444156 33.7056771,43.4848425 C33.7139375,43.6252695 33.6658204,43.7631873 33.572,43.868 L26.532,51.128 C26.4372458,51.2176321 26.3103263,51.2652269 26.18,51.26 L25.96,51.216 Z M19.624,43.692 L26.136,50.028 L32.472,43.516 L25.96,37.18 L19.624,43.692 Z" id="Shape" fill="url(#linearGradient-7)" fill-rule="nonzero"></path><rect id="Rectangle" fill="#FFFFFF" fill-rule="nonzero" transform="translate(49.445324, 94.601612) rotate(-0.700000) translate(-49.445324, -94.601612) " x="35.255324" y="93.8316119" width="28.38" height="1.54"></rect><rect id="Rectangle" fill="#FFFFFF" fill-rule="nonzero" transform="translate(89.036993, 94.161851) rotate(-0.700000) translate(-89.036993, -94.161851) " x="66.9709932" y="93.3918515" width="44.132" height="1.54"></rect><rect id="Rectangle" fill="#FFFFFF" fill-rule="nonzero" transform="translate(61.084450, 53.901670) rotate(-1.000000) translate(-61.084450, -53.901670) " x="0.518449771" y="53.5166703" width="121.132" height="1"></rect><rect id="Rectangle" fill="#FFFFFF" fill-rule="nonzero" transform="translate(48.552484, 74.588725) rotate(-0.800000) translate(-48.552484, -74.588725) " x="37.6844844" y="73.9463255" width="21.736" height="1.2848"></rect><rect id="Rectangle" fill="#FFFFFF" fill-rule="nonzero" transform="translate(74.152459, 74.187221) rotate(-0.800000) translate(-74.152459, -74.187221) " x="63.2844592" y="73.5448205" width="21.736" height="1.2848"></rect><rect id="Rectangle" fill="#FFFFFF" fill-rule="nonzero" transform="translate(99.797044, 73.873097) rotate(-0.800000) translate(-99.797044, -73.873097) " x="88.9290441" y="73.230697" width="21.736" height="1.2848"></rect><path d="M152.02,31.9 C152.838513,27.3412376 156.733392,23.9756893 161.362667,23.8270429 C165.991941,23.6783965 170.094711,26.7871395 171.204,31.284" id="Path" stroke="#FFFFFF" stroke-width="1.32" stroke-linecap="round" stroke-linejoin="round"></path><path d="M171.424,35.332 C170.553633,39.8406259 166.672792,43.1426362 162.082973,43.2798031 C157.493155,43.4169701 153.422054,40.3526041 152.284,35.904" id="Path" stroke="#FFFFFF" stroke-width="1.32" stroke-linecap="round" stroke-linejoin="round"></path><polyline id="Path" stroke="#FFFFFF" stroke-width="1.32" stroke-linecap="round" stroke-linejoin="round" points="172.744 28.292 171.468 31.636 168.124 30.36"></polyline><polyline id="Path" stroke="#FFFFFF" stroke-width="1.32" stroke-linecap="round" stroke-linejoin="round" points="150.832 39.072 152.108 35.728 155.452 36.96"></polyline><path d="M162.272,37.268 L162.272,37.884 C162.272,38.1513058 162.055306,38.368 161.788,38.368 C161.538012,38.3451815 161.346961,38.1350249 161.348,37.884 L161.348,37.312 C160.562754,37.2514382 159.812807,36.9606422 159.192,36.476 C159.011734,36.3854494 158.906535,36.1925856 158.928,35.992 C158.928,35.6517926 159.203793,35.376 159.544,35.376 L159.94,35.508 C160.346615,35.8342102 160.832458,36.0467666 161.348,36.124 L161.348,33.968 C160.204,33.66 159.016,33.264 159.016,31.812 C159.016,30.36 159.94,29.788 161.348,29.656 L161.348,28.996 C161.368462,28.7619932 161.553993,28.5764616 161.788,28.556 C162.039025,28.5549607 162.249182,28.7460122 162.272,28.996 L162.272,29.7 C162.903375,29.7433839 163.511376,29.9561842 164.032,30.316 C164.211037,30.4294867 164.312633,30.6326788 164.296,30.844 C164.296473,31.0036443 164.230207,31.1562223 164.113221,31.2648529 C163.996234,31.3734835 163.839172,31.4282811 163.68,31.416 L163.372,31.328 C163.039464,31.107303 162.665006,30.9575198 162.272,30.888 L162.272,32.78 C163.416,33.088 164.648,33.528 164.648,35.024 C164.648,36.52 163.9,37.136 162.272,37.268 Z M161.348,32.56 L161.348,30.8 C160.732,30.888 160.336,31.24 160.336,31.724 C160.336,32.208 160.776,32.384 161.348,32.56 Z M163.328,35.156 C163.328,34.628 162.888,34.408 162.272,34.188 L162.272,36.124 C163.02,35.992 163.328,35.552 163.328,35.156 Z" id="Shape" fill="#FFFFFF" fill-rule="nonzero"></path></g></g></g></svg> 