<svg xmlns="http://www.w3.org/2000/svg" xmlns:xlink="http://www.w3.org/1999/xlink" viewBox="0 0 612 196"><path d="M186.3 166.2H49.7v-19.4H38v31.1h148.3z" fill="#c00"/><g fill="#002e6d"><path d="M38.3 49.2h11.5V29.7h136.6v19.5h11.7V18.1H38.3zm-9.4 63.1c.1 4 2 11.7 14.8 11.7 6.9 0 14.6-1.7 14.6-9.4 0-5.6-5.3-7.2-12.7-9l-7.5-1.9c-11.3-2.7-22.2-5.3-22.2-21.3 0-8.1 4.2-22.3 26.9-22.3 21.4 0 27.1 14.5 27.3 23.4h-14c-.4-3.2-1.5-10.9-14.3-10.9-5.6 0-12.1 2.1-12.1 8.7 0 5.6 4.5 6.9 7.4 7.6l17 4.3c9.5 2.4 18.3 6.5 18.3 19.5 0 21.9-21.4 23.7-27.5 23.7-25.5 0-29.9-15.2-29.9-24.3h13.9v.2zm61.9-50.2h35.3c17.8 0 22.3 11.1 22.3 18.6 0 10.4-5.9 13.4-8.9 14.8 8.9 3.3 11.2 10.4 11.2 17.6 0 5.8-2.4 11.2-6.3 15-4.2 4-8.1 6.6-22.9 6.6H90.8V62.1zm14.5 28.4h17.8c5.9 0 10.7-2.3 10.7-8.1 0-5.9-4.2-7.8-11.1-7.8h-17.4v15.9zm0 31.6H124c7.4 0 11.6-3.2 11.6-10.6 0-6.3-5.5-8.8-10.9-8.8h-19.3v19.4zM197.9 62h-11.5l-23 72.7h14.5L192 87l14.4 47.7h14.5zm-.1 104.2l-11.5 11.7v-43.1h11.5zM262.7 62h3.4v15.8c0 1.6.2 2.9.5 4s.8 1.9 1.3 2.6c.5.6 1.2 1.1 2 1.4s1.5.5 2.5.5c.9 0 1.7-.2 2.5-.5s1.4-.8 2-1.4c.5-.6 1-1.5 1.3-2.6s.5-2.4.5-4V62h3.2v15.7c0 2.2-.2 3.9-.7 5.4s-1.2 2.6-2 3.6c-.8.9-1.9 1.5-3 1.9-1.2.4-2.4.6-3.8.6s-2.6-.2-3.8-.6-2.2-1.1-3-1.9c-.8-.9-1.5-2.1-2-3.6s-.7-3.2-.7-5.4V62h-.2z"/><use xlink:href="#B"/><path d="M294.9 82.8c.9 1 2.1 1.8 3.3 2.4 1.3.6 2.6.9 4 .9 1.8 0 3.2-.4 4.1-1.2 1-.8 1.5-1.9 1.5-3.2 0-.7-.1-1.2-.3-1.7s-.5-.8-.9-1.2c-.4-.3-.8-.6-1.4-.9l-1.8-.8-3.8-1.7-1.9-1c-.6-.4-1.2-.8-1.8-1.4-.5-.5-.9-1.2-1.2-1.9-.3-.8-.5-1.6-.5-2.5a6.71 6.71 0 0 1 .6-2.8c.4-.8 1-1.6 1.8-2.2s1.6-1.2 2.6-1.5c1-.4 2.2-.5 3.3-.5 1.6 0 3.1.3 4.4.9 1.4.6 2.5 1.4 3.5 2.4l-1.9 2.2c-.8-.8-1.7-1.4-2.7-1.9s-2.1-.7-3.3-.7c-1.5 0-2.7.3-3.6 1s-1.4 1.6-1.4 2.9c0 .6.2 1.2.4 1.6.2.5.6.8 1 1.2l1.4.9 1.6.7 3.8 1.6c.8.3 1.5.7 2.2 1.1s1.2.9 1.8 1.5c.5.5.8 1.2 1.2 1.9.3.8.5 1.6.5 2.5 0 1.1-.2 2.1-.6 2.9-.4.9-1 1.7-1.8 2.4s-1.7 1.2-2.9 1.6c-1.1.4-2.4.6-3.8.6a12.74 12.74 0 0 1-5.2-1.1c-1.6-.7-3-1.7-4.2-2.9l2-2.1z"/><use xlink:href="#B" x="30.6"/><path d="M335.5 82.8c.9 1 2.1 1.8 3.3 2.4 1.3.6 2.6.9 4 .9 1.8 0 3.2-.4 4.1-1.2 1-.8 1.5-1.9 1.5-3.2 0-.7-.1-1.2-.3-1.7s-.5-.8-.9-1.2c-.4-.3-.8-.6-1.4-.9l-1.8-.8-3.8-1.7-1.9-1c-.6-.4-1.2-.8-1.8-1.4-.5-.5-.9-1.2-1.2-1.9-.3-.8-.5-1.6-.5-2.5a6.71 6.71 0 0 1 .6-2.8c.4-.8 1-1.6 1.8-2.2s1.6-1.2 2.6-1.5c1-.4 2.2-.5 3.3-.5 1.6 0 3.1.3 4.4.9 1.4.6 2.5 1.4 3.5 2.4l-1.9 2.2c-.8-.8-1.7-1.4-2.7-1.9s-2.1-.7-3.3-.7c-1.5 0-2.7.3-3.6 1s-1.4 1.6-1.4 2.9c0 .6.2 1.2.4 1.6.2.5.6.8 1 1.2l1.4.9 1.6.7 3.8 1.6c.8.3 1.5.7 2.2 1.1s1.2.9 1.8 1.5c.5.5.9 1.2 1.2 1.9.3.8.5 1.6.5 2.5 0 1.1-.2 2.1-.6 2.9-.4.9-1 1.7-1.8 2.4s-1.7 1.2-2.9 1.6c-1.1.4-2.4.6-3.8.6a12.74 12.74 0 0 1-5.2-1.1c-1.6-.7-3-1.7-4.2-2.9l2-2.1zm22.4-14h2.8l.3 2.9h.2c.8-.9 1.8-1.8 2.9-2.4 1-.6 2.1-.9 3.3-.9 1.5 0 2.7.3 3.6 1 .8.7 1.5 1.6 1.9 2.8 1-1.2 2.1-2.1 3.1-2.8s2.2-1 3.4-1c2 0 3.6.6 4.6 1.9s1.5 3.2 1.5 5.8v12.5H382v-12c0-1.9-.3-3.2-.9-4s-1.5-1.2-2.8-1.2c-1.5 0-3.2 1-4.9 3v14.3H370V76.6c0-1.9-.3-3.2-.9-4s-1.5-1.2-2.8-1.2c-1.5 0-3.2 1-4.9 3v14.3H358l-.1-19.9zm32.9 14.7c0-2.2 1-3.9 2.9-4.9 1.9-1.2 5-1.9 9.3-2.4 0-.6-.1-1.2-.2-1.9-.2-.6-.3-1.2-.6-1.6-.3-.5-.7-.8-1.2-1.1s-1.2-.5-2-.5a8.29 8.29 0 0 0-3.2.6c-1 .5-1.9.9-2.6 1.5l-1.3-2.3c.9-.6 2.1-1.2 3.4-1.7s2.8-.8 4.4-.8c2.4 0 4.2.8 5.3 2.2 1.1 1.5 1.6 3.5 1.6 5.9v12.1h-2.8l-.3-2.4h-.1c-.9.8-2 1.5-3.1 2s-2.2.8-3.5.8c-1.7 0-3.1-.5-4.2-1.5-1.2-.8-1.8-2.2-1.8-4zm3.4-.3c0 1.2.3 1.9 1 2.5.7.5 1.5.7 2.5.7.9 0 1.9-.2 2.7-.7s1.8-1.1 2.7-2v-5.5c-1.6.2-3 .5-4.2.8s-2.1.6-2.8 1.1c-.7.4-1.2.8-1.5 1.4-.3.5-.4 1.1-.4 1.7z"/><use xlink:href="#C"/><use xlink:href="#C" x="11.5"/><path d="M446 62h8c1.4 0 2.6.2 3.7.4 1.2.2 2.1.6 2.9 1.2.8.5 1.4 1.2 1.9 2s.7 1.9.7 3c0 1.3-.4 2.5-1.2 3.6s-1.9 1.8-3.5 2.2v.2c1.9.3 3.5 1 4.6 2 1.1 1.1 1.6 2.5 1.6 4.3 0 1.3-.2 2.5-.7 3.4-.5 1-1.2 1.8-2.1 2.5-.9.6-1.9 1.2-3.2 1.5-1.2.3-2.6.5-4.1.5H446V62zm7.4 11.3c2.3 0 3.9-.4 4.9-1.2s1.5-1.9 1.5-3.4-.5-2.5-1.5-3.2c-1.1-.6-2.6-.9-4.7-.9h-4.1v8.7h3.9zm.6 12.6c2.3 0 4.1-.5 5.3-1.3s1.9-2.2 1.9-4c0-1.6-.6-2.9-1.9-3.6-1.2-.8-3-1.2-5.4-1.2h-4.6v10.1h4.7zm15.5-17.1h3.4v12.1c0 1.9.3 3.2.8 4 .6.8 1.5 1.2 2.9 1.2 1 0 1.9-.2 2.7-.8.8-.5 1.6-1.4 2.6-2.5v-14h3.3v19.8h-2.8l-.3-3.1h-.1c-.9 1.1-1.9 1.9-2.9 2.6-1 .6-2.2 1-3.6 1-2.1 0-3.6-.6-4.6-1.9-.9-1.3-1.5-3.2-1.5-5.8l.1-12.6zm22.9 15.3c.8.7 1.8 1.3 2.6 1.7.9.5 1.9.6 3.2.6s2.2-.3 2.9-.9 1-1.3 1-2.2c0-.5-.2-.9-.4-1.3a4.74 4.74 0 0 0-1-1c-.4-.3-.9-.5-1.5-.8-.5-.2-1.1-.5-1.6-.6-.7-.2-1.4-.5-2.1-.8s-1.3-.7-1.9-1.2l-1.4-1.5c-.4-.6-.5-1.3-.5-2.2 0-.8.2-1.5.5-2.2s.8-1.3 1.3-1.8c.6-.5 1.3-.9 2.2-1.2.8-.2 1.8-.5 2.9-.5 1.2 0 2.4.2 3.4.6 1.1.5 1.9.9 2.7 1.6l-1.6 2.1c-.7-.5-1.4-.9-2.1-1.2s-1.5-.5-2.4-.5c-1.2 0-2.2.3-2.8.8s-.8 1.2-.8 2c0 .5.2.8.4 1.2.2.3.5.6 1 .9.4.2.8.5 1.4.7l1.6.6c.7.3 1.4.5 2.2.8.7.3 1.4.7 1.9 1.1.5.5 1 1 1.4 1.6s.5 1.5.5 2.4c0 .8-.2 1.5-.5 2.2s-.8 1.3-1.4 1.9c-.6.5-1.4 1-2.2 1.3-.9.3-1.9.5-3.1.5-1.4 0-2.8-.2-4-.8-1.3-.5-2.4-1.2-3.3-1.9l1.5-2zm20.3-19.4c-.6 0-1.2-.2-1.6-.6-.5-.4-.7-.9-.7-1.5s.2-1.2.7-1.5c.5-.4 1-.6 1.6-.6s1.2.2 1.6.6c.5.4.7.9.7 1.5s-.2 1.2-.7 1.5c-.4.5-.9.6-1.6.6zm-1.7 4.1h3.3v19.8H511V68.8zm11 0h2.8l.3 2.9h.2c.9-.9 1.9-1.8 3-2.4 1-.6 2.2-.9 3.6-.9 2.1 0 3.6.6 4.6 1.9.9 1.3 1.5 3.2 1.5 5.8v12.5h-3.3v-12c0-1.9-.3-3.2-.9-4s-1.5-1.2-2.9-1.2c-1 0-1.9.2-2.7.8-.8.5-1.7 1.3-2.7 2.2v14.3h-3.3l-.2-19.9zm21.8 10c0-1.6.2-3.1.8-4.4.5-1.3 1.2-2.4 2-3.2.8-.9 1.8-1.5 2.9-2.1 1.1-.5 2.2-.7 3.3-.7 1.2 0 2.4.2 3.3.6 1 .5 1.9 1.1 2.5 1.9.7.8 1.2 1.8 1.5 2.9.4 1.2.5 2.4.5 3.8 0 .7-.1 1.3-.2 1.9H547c.2 2.2.8 3.9 2 5.1a6.25 6.25 0 0 0 4.6 1.9c.9 0 1.9-.2 2.6-.5s1.5-.6 2.3-1.1l1.2 2.2c-.8.5-1.9 1-2.9 1.4-1.1.4-2.2.6-3.6.6-1.3 0-2.5-.2-3.7-.7s-2.2-1.2-3-2-1.5-1.9-2-3.2c-.4-1.4-.7-2.8-.7-4.4zm13.9-1.5c0-2-.5-3.6-1.3-4.6-.8-1.1-2.1-1.6-3.6-1.6-.7 0-1.4.2-2 .5a6.57 6.57 0 0 0-1.7 1.2c-.5.5-.9 1.2-1.3 1.9-.3.8-.5 1.6-.7 2.6h10.6zm8.2 6.8c.8.7 1.8 1.3 2.6 1.7.9.5 1.9.6 3.2.6s2.2-.3 2.9-.9c.6-.6 1-1.3 1-2.2 0-.5-.2-.9-.4-1.3a4.74 4.74 0 0 0-1-1c-.4-.3-.9-.5-1.5-.8-.5-.2-1.1-.5-1.6-.6-.7-.2-1.4-.5-2.1-.8s-1.3-.7-1.9-1.2l-1.4-1.5c-.4-.6-.5-1.3-.5-2.2 0-.8.2-1.5.5-2.2s.8-1.3 1.3-1.8c.6-.5 1.3-.9 2.2-1.2.8-.3 1.8-.5 2.9-.5 1.2 0 2.4.2 3.4.6 1.1.5 1.9.9 2.7 1.6l-1.6 2.1c-.7-.5-1.4-.9-2.1-1.2s-1.5-.5-2.4-.5c-1.2 0-2.2.3-2.8.8s-.8 1.2-.8 2c0 .5.2.8.4 1.2.2.3.5.6 1 .9.4.2.8.5 1.4.7l1.6.6c.7.3 1.4.5 2.2.8.7.3 1.4.7 1.9 1.1.5.5 1 1 1.4 1.6s.5 1.5.5 2.4c0 .8-.2 1.5-.5 2.2s-.8 1.3-1.4 1.9c-.6.5-1.4 1-2.2 1.3-.9.3-1.9.5-3.1.5-1.4 0-2.8-.2-4-.8-1.3-.5-2.4-1.2-3.3-1.9l1.5-2zm18.1 0c.8.7 1.8 1.3 2.6 1.7.9.5 1.9.6 3.2.6s2.2-.3 2.9-.9 1-1.3 1-2.2c0-.5-.2-.9-.4-1.3a4.74 4.74 0 0 0-1-1c-.4-.3-.9-.5-1.5-.8-.5-.2-1.1-.5-1.6-.6-.7-.2-1.4-.5-2.1-.8s-1.3-.7-1.9-1.2-1-1-1.4-1.5c-.4-.6-.5-1.3-.5-2.2 0-.8.2-1.5.5-2.2s.8-1.3 1.3-1.8c.6-.5 1.3-.9 2.2-1.2.8-.3 1.8-.5 2.9-.5 1.2 0 2.4.2 3.4.6 1.1.5 1.9.9 2.7 1.6l-1.6 2.1c-.7-.5-1.4-.9-2.1-1.2s-1.5-.5-2.4-.5c-1.2 0-2.2.3-2.8.8s-.8 1.2-.8 2c0 .5.2.8.4 1.2.2.3.5.6 1 .9.4.2.8.5 1.4.7l1.6.6c.7.3 1.4.5 2.2.8.7.3 1.4.7 1.9 1.1.5.5 1 1 1.4 1.6s.5 1.5.5 2.4c0 .8-.2 1.5-.5 2.2s-.8 1.3-1.4 1.9c-.6.5-1.4 1-2.2 1.3-.9.3-1.9.5-3.1.5-1.4 0-2.8-.2-4-.8-1.3-.5-2.4-1.2-3.3-1.9l1.5-2zm-309.1 42.1h-9.7l-2.5 8.1h-3.5l9-26.7h3.8l9 26.7h-3.6l-2.5-8.1zm-.8-2.7l-1.2-4.1-1.4-4.5-1.3-4.6h-.2l-1.2 4.6-1.4 4.5-1.2 4.1h7.9zm10 1c0-1.6.2-3 .7-4.3s1.1-2.4 1.9-3.2c.8-.9 1.7-1.6 2.7-2.1s2.1-.7 3.2-.7c1.2 0 2.2.2 2.9.6.8.4 1.7.9 2.5 1.7l-.2-3.4v-7.6h3.4v29h-2.8l-.3-2.3h-.2c-.8.8-1.7 1.4-2.7 2-1 .5-2.1.8-3.2.8-2.5 0-4.5-.9-5.9-2.7-1.2-1.9-2-4.4-2-7.8zm3.5 0c0 2.4.5 4.2 1.4 5.6.9 1.3 2.3 2 4 2 .9 0 1.8-.2 2.6-.7s1.6-1.2 2.5-2.1v-10.4c-.8-.8-1.6-1.3-2.4-1.6s-1.5-.5-2.4-.5c-.8 0-1.5.2-2.2.5s-1.3.8-1.8 1.5-.9 1.5-1.2 2.4c-.3 1.1-.5 2.2-.5 3.3zm20.7-9.9h2.8l.3 2.9h.2c.8-.9 1.8-1.8 2.9-2.4 1-.6 2.1-.9 3.3-.9 1.5 0 2.7.3 3.6 1 .8.7 1.5 1.6 1.9 2.8 1-1.2 2.1-2.1 3.1-2.8s2.2-1 3.4-1c2 0 3.6.6 4.6 1.9s1.5 3.2 1.5 5.8v12.5h-3.3v-12.1c0-1.9-.3-3.2-.9-4s-1.5-1.2-2.8-1.2c-1.5 0-3.2 1-4.9 3v14.3h-3.3v-12.1c0-1.9-.3-3.2-.9-4s-1.5-1.2-2.8-1.2c-1.5 0-3.2 1-4.9 3v14.3h-3.3l-.5-19.8zm36.5-4c-.6 0-1.2-.2-1.6-.6-.5-.4-.7-.9-.7-1.5s.2-1.2.7-1.5 1-.6 1.6-.6 1.2.2 1.6.6.7.9.7 1.5-.2 1.2-.7 1.5c-.4.3-1 .6-1.6.6zm-1.7 4h3.3v19.8h-3.3v-19.8zm11 0h2.8l.3 2.9h.2c.9-.9 1.9-1.8 3-2.4 1-.6 2.2-.9 3.6-.9 2.1 0 3.6.6 4.6 1.9.9 1.3 1.5 3.2 1.5 5.8v12.5h-3.3v-12.1c0-1.9-.3-3.2-.9-4s-1.5-1.2-2.9-1.2c-1 0-1.9.2-2.7.8-.8.5-1.7 1.3-2.7 2.2v14.3h-3.3l-.2-19.8zm25-4c-.6 0-1.2-.2-1.6-.6-.5-.4-.7-.9-.7-1.5s.2-1.2.7-1.5c.5-.4 1-.6 1.6-.6s1.2.2 1.6.6c.5.4.7.9.7 1.5s-.2 1.2-.7 1.5c-.4.3-1 .6-1.6.6zm-1.7 4h3.3v19.8h-3.3v-19.8zm10.5 15.3c.8.7 1.8 1.3 2.6 1.7.9.5 1.9.6 3.2.6s2.2-.3 2.9-.9c.6-.6 1-1.3 1-2.2 0-.5-.2-.9-.4-1.3a4.74 4.74 0 0 0-1-1c-.4-.3-.9-.5-1.5-.8-.5-.2-1.1-.5-1.6-.6-.7-.2-1.4-.5-2.1-.8s-1.3-.7-1.9-1.2l-1.4-1.5c-.4-.6-.5-1.3-.5-2.2 0-.8.2-1.5.5-2.2s.8-1.3 1.3-1.8c.6-.5 1.3-.9 2.2-1.2.8-.3 1.8-.5 2.9-.5 1.2 0 2.4.2 3.4.6s1.9.9 2.7 1.6l-1.6 2.1c-.7-.5-1.4-.9-2.1-1.2s-1.5-.5-2.4-.5c-1.2 0-2.2.3-2.8.8s-.8 1.2-.8 2c0 .5.2.8.4 1.2.2.3.5.6 1 .9.4.2.8.5 1.4.7l1.6.6c.7.3 1.4.5 2.2.8.7.3 1.4.7 1.9 1.1.5.5 1 1 1.4 1.6s.5 1.5.5 2.4c0 .8-.2 1.5-.5 2.2s-.8 1.3-1.4 1.9-1.4 1-2.2 1.3c-.9.3-1.9.5-3.1.5-1.4 0-2.8-.2-4-.8-1.3-.5-2.4-1.2-3.3-1.9l1.5-2zm19.1-12.5h-2.9v-2.5l3.1-.2.4-5.6h2.8v5.6h5.3v2.7h-5.3v11c0 1.2.2 2.2.7 2.9s1.2 1 2.4 1c.4 0 .7-.1 1.2-.2.4-.1.8-.2 1.1-.4l.6 2.5c-.5.2-1.2.4-1.8.5-.6.2-1.2.2-1.9.2-1.1 0-1.9-.2-2.6-.5s-1.3-.8-1.8-1.3-.8-1.2-.9-2.1c-.2-.8-.3-1.7-.3-2.7l-.1-10.9zm14.2-2.8h2.8l.3 3.6h.2c.7-1.2 1.5-2.2 2.5-2.9.9-.7 2-1.1 3.2-1.1.8 0 1.5.2 2.1.4l-.6 2.9c-.3-.1-.6-.2-.9-.2-.3-.1-.6-.1-1-.1-.8 0-1.7.3-2.6 1s-1.7 1.9-2.4 3.6v12.7h-3.3l-.3-19.9zm13.1 14.7c0-2.2 1-3.9 2.9-4.9 1.9-1.2 5-1.9 9.3-2.4 0-.6-.1-1.2-.2-1.9-.2-.6-.3-1.2-.6-1.6-.3-.5-.7-.8-1.2-1.1s-1.2-.5-2-.5a8.29 8.29 0 0 0-3.2.6c-1 .5-1.9.9-2.6 1.5l-1.3-2.3c.9-.6 2.1-1.2 3.4-1.7s2.8-.8 4.4-.8c2.4 0 4.2.8 5.3 2.2 1.1 1.5 1.6 3.5 1.6 5.9v12.1h-2.8l-.3-2.4h-.1c-.9.8-2 1.5-3.1 2s-2.2.8-3.5.8c-1.7 0-3.1-.5-4.2-1.5-1.2-.9-1.8-2.3-1.8-4zm3.4-.3c0 1.2.3 1.9 1 2.5.7.5 1.5.7 2.5.7.9 0 1.9-.2 2.7-.7s1.8-1.1 2.7-2V124c-1.6.2-3 .5-4.2.8s-2.1.6-2.8 1.1c-.7.4-1.2.8-1.5 1.4-.3.5-.4 1.1-.4 1.7zm20.1-11.6h-2.9v-2.5l3.1-.2.4-5.6h2.8v5.6h5.3v2.7h-5.3v11c0 1.2.2 2.2.7 2.9s1.2 1 2.4 1c.4 0 .7-.1 1.2-.2.4-.1.8-.2 1.1-.4l.6 2.5c-.5.2-1.2.4-1.8.5s-1.2.2-1.9.2c-1.1 0-1.9-.2-2.6-.5s-1.3-.8-1.8-1.3-.8-1.2-.9-2.1c-.2-.8-.3-1.7-.3-2.7l-.1-10.9zm15.9-6.8c-.6 0-1.2-.2-1.6-.6-.5-.4-.7-.9-.7-1.5s.2-1.2.7-1.5c.5-.4 1-.6 1.6-.6s1.2.2 1.6.6c.5.4.7.9.7 1.5s-.2 1.2-.7 1.5-1 .6-1.6.6zm-1.7 4h3.3v19.8H472v-19.8zm9.5 9.9c0-1.6.2-3.1.8-4.4.5-1.3 1.2-2.4 2-3.2.8-.9 1.8-1.5 2.9-2s2.2-.7 3.5-.7 2.4.2 3.5.7a9.99 9.99 0 0 1 2.9 2c.8.9 1.5 2 2 3.2.5 1.3.8 2.8.8 4.4s-.2 3.1-.8 4.4c-.5 1.3-1.2 2.4-2 3.2a9.99 9.99 0 0 1-2.9 2c-1.1.5-2.2.7-3.5.7s-2.4-.2-3.5-.7a9.99 9.99 0 0 1-2.9-2c-.8-.8-1.5-1.9-2-3.2s-.8-2.7-.8-4.4zm3.5 0c0 1.2.2 2.2.4 3.1.3.9.6 1.7 1.2 2.4.5.7 1.1 1.2 1.8 1.5.7.4 1.5.5 2.3.5s1.6-.2 2.3-.5c.7-.4 1.3-.8 1.8-1.5s.8-1.5 1.2-2.4c.3-.9.4-1.9.4-3.1s-.2-2.2-.4-3.1c-.3-.9-.7-1.8-1.2-2.4-.5-.7-1.1-1.2-1.8-1.5-.7-.4-1.5-.5-2.3-.5s-1.6.2-2.3.5a6.55 6.55 0 0 0-1.8 1.5c-.5.7-.9 1.5-1.2 2.4-.3 1-.4 2-.4 3.1zm20.2-9.9h2.8l.3 2.9h.2c.9-.9 1.9-1.8 3-2.4 1-.6 2.2-.9 3.6-.9 2.1 0 3.6.6 4.6 1.9s1.5 3.2 1.5 5.8v12.5h-3.3v-12.1c0-1.9-.3-3.2-.9-4s-1.5-1.2-2.9-1.2c-1 0-1.9.2-2.7.8-.8.5-1.7 1.3-2.7 2.2v14.3h-3.3l-.2-19.8z"/></g><defs ><path id="B" d="M284.3 86.6c0-.8.2-1.4.7-1.9a2.34 2.34 0 0 1 1.7-.7 2.34 2.34 0 0 1 1.7.7c.5.5.7 1.1.7 1.9 0 .7-.2 1.3-.7 1.8a2.19 2.19 0 0 1-1.7.7 2.19 2.19 0 0 1-1.7-.7c-.5-.5-.7-1.1-.7-1.8z"/><path id="C" d="M413.6 59.6h3.3v25.2c0 .5.1.9.3 1.2.2.2.4.3.6.3h.3c.1 0 .2 0 .5-.1l.5 2.5c-.2.1-.5.2-.8.2-.3.1-.7.1-1.2.1-1.2 0-2.2-.4-2.7-1.2s-.8-1.9-.8-3.3V59.6z"/></defs></svg>