<?xml version="1.0" encoding="UTF-8"?> <svg xmlns="http://www.w3.org/2000/svg" xmlns:xlink="http://www.w3.org/1999/xlink" width="192px" height="129px" viewBox="0 0 192 129" version="1.1"><!-- Generator: Sketch 52.6 (67491) - http://www.bohemiancoding.com/sketch --><title>homepage_Short Term</title><desc>Created with Sketch.</desc><defs><linearGradient x1="98.6502177%" y1="49.976088%" x2="-123.860668%" y2="49.976088%" id="linearGradient-1"><stop stop-color="#F4BD43" offset="0%"></stop><stop stop-color="#EA4969" offset="100%"></stop></linearGradient><linearGradient x1="49.9219621%" y1="-1.16809117%" x2="49.9219621%" y2="215.37037%" id="linearGradient-2"><stop stop-color="#F4BD43" offset="0%"></stop><stop stop-color="#EA4969" offset="100%"></stop></linearGradient><linearGradient x1="49.9219621%" y1="-1.12535613%" x2="49.9219621%" y2="215.413105%" id="linearGradient-3"><stop stop-color="#F4BD43" offset="0%"></stop><stop stop-color="#EA4969" offset="100%"></stop></linearGradient><linearGradient x1="374.158004%" y1="49.9430037%" x2="13.035343%" y2="49.9430037%" id="linearGradient-4"><stop stop-color="#F4BD43" offset="0%"></stop><stop stop-color="#EA4969" offset="100%"></stop></linearGradient><linearGradient x1="84.5261984%" y1="49.9430199%" x2="-86.7892977%" y2="49.9430199%" id="linearGradient-5"><stop stop-color="#F4BD43" offset="0%"></stop><stop stop-color="#EA4969" offset="100%"></stop></linearGradient><linearGradient x1="2.24747475%" y1="19.9873737%" x2="89.9621212%" y2="74.9873737%" id="linearGradient-6"><stop stop-color="#6ADFFC" offset="0%"></stop><stop stop-color="#05C2F0" offset="100%"></stop></linearGradient></defs><g id="Final-Homepage-+-Styles" stroke="none" stroke-width="1" fill="none" fill-rule="evenodd"><g id="Homepage---Loan-Types" transform="translate(-1403.000000, -557.000000)"><g id="homepage_Short-Term" transform="translate(1403.000000, 557.000000)"><path d="M35.816,127.556 L145.244,127.556 C168.672656,116.203438 182.443428,91.3561748 179.652,65.472 C177.15038,41.1698744 161.089489,20.3861946 138.204,11.836 C112.244,2.2 86.108,9.24 68.86,25.828 C57.464,36.74 48.576,47.344 34.584,54.604 C22.176,60.984 11.792,71.676 10.076,86.592 C8.228,103.18 19.096,121.176 35.816,127.556 Z" id="Path" fill="#EEF7FF" fill-rule="nonzero"></path><rect id="Rectangle" fill="#05C2F0" fill-rule="nonzero" x="66.44" y="61.116" width="17.864" height="27.5528"></rect><rect id="Rectangle" fill="#6ADFFC" fill-rule="nonzero" x="83.952" y="61.116" width="83.16" height="27.5528"></rect><rect id="Rectangle" fill="url(#linearGradient-1)" fill-rule="nonzero" x="110.088" y="61.072" width="30.316" height="27.6012"></rect><rect id="Rectangle" fill="#05C2F0" fill-rule="nonzero" transform="translate(134.756600, 108.416000) rotate(-90.000000) translate(-134.756600, -108.416000) " x="115.0446" y="62.9794" width="39.424" height="90.8732"></rect><rect id="Rectangle" fill="#6ADFFC" fill-rule="nonzero" transform="translate(149.527400, 108.372000) rotate(-90.000000) translate(-149.527400, -108.372000) " x="129.8154" y="66.1166" width="39.424" height="84.5108"></rect><path d="M181.852,122.892 C181.852,120.680652 183.644652,118.888 185.856,118.888 C186.168656,118.888588 186.479685,118.93302 186.78,119.02 L186.78,97.504 C186.479685,97.5909797 186.168656,97.6354124 185.856,97.636 C184.794073,97.636 183.77564,97.2141512 183.024744,96.4632556 C182.273849,95.7123599 181.852,94.6939268 181.852,93.632 C181.852,93.5 181.896,93.412 181.896,93.324 L117.348,93.324 L117.348,93.632 C117.359755,94.6898601 116.947737,95.7084422 116.203815,96.46063 C115.459893,97.2128177 114.445925,97.6360653 113.388,97.636 C113.015403,97.6237042 112.645833,97.5645731 112.288,97.46 L112.288,119.064 C112.645833,118.959427 113.015403,118.900296 113.388,118.888 C114.445925,118.887935 115.459893,119.311182 116.203815,120.06337 C116.947737,120.815558 117.359755,121.83414 117.348,122.892 C117.356931,123.083751 117.342153,123.275871 117.304,123.464 L181.896,123.464 C181.896,123.288 181.852,123.112 181.852,122.892 Z" id="Path" fill="#C0F2FF" fill-rule="nonzero"></path><rect id="Rectangle" fill="url(#linearGradient-2)" fill-rule="nonzero" transform="translate(149.072000, 108.438000) rotate(90.000000) translate(-149.072000, -108.438000) " x="129.338" y="92.994" width="39.468" height="30.888"></rect><circle id="Oval" fill="#6ADFFC" fill-rule="nonzero" cx="171.732" cy="108.372" r="4.18"></circle><circle id="Oval" fill="#6ADFFC" fill-rule="nonzero" cx="125.972" cy="108.372" r="4.18"></circle><rect id="Rectangle" fill="#05C2F0" fill-rule="nonzero" transform="translate(45.744600, 108.372000) rotate(-90.000000) translate(-45.744600, -108.372000) " x="26.0326" y="62.9354" width="39.424" height="90.8732"></rect><rect id="Rectangle" fill="#6ADFFC" fill-rule="nonzero" transform="translate(60.471400, 108.372000) rotate(-90.000000) translate(-60.471400, -108.372000) " x="40.7594" y="66.1166" width="39.424" height="84.5108"></rect><path d="M92.84,122.892 C92.84,121.830073 93.2618488,120.81164 94.0127444,120.060744 C94.7636401,119.309849 95.7820732,118.888 96.844,118.888 C97.1566563,118.888588 97.4676854,118.93302 97.768,119.02 L97.768,97.504 C97.4676854,97.5909797 97.1566563,97.6354124 96.844,97.636 C94.6326519,97.636 92.84,95.8433481 92.84,93.632 C92.8299126,93.5272939 92.8449984,93.4216933 92.884,93.324 L28.292,93.324 C28.3310016,93.4216933 28.3460874,93.5272939 28.336,93.632 C28.336,95.8433481 26.5433481,97.636 24.332,97.636 C23.9741484,97.6205343 23.6195242,97.5614303 23.276,97.46 L23.276,119.064 C23.6195242,118.96257 23.9741484,118.903466 24.332,118.888 C25.3939268,118.888 26.4123599,119.309849 27.1632556,120.060744 C27.9141512,120.81164 28.336,121.830073 28.336,122.892 C28.336,123.112 28.292,123.288 28.292,123.464 L92.884,123.464 C92.884,123.288 92.84,123.112 92.84,122.892 Z" id="Path" fill="#C0F2FF" fill-rule="nonzero"></path><rect id="Rectangle" fill="url(#linearGradient-3)" fill-rule="nonzero" transform="translate(60.060000, 108.438000) rotate(90.000000) translate(-60.060000, -108.438000) " x="40.326" y="92.994" width="39.468" height="30.888"></rect><circle id="Oval" fill="#6ADFFC" fill-rule="nonzero" cx="82.72" cy="108.372" r="4.18"></circle><circle id="Oval" fill="#6ADFFC" fill-rule="nonzero" cx="36.96" cy="108.372" r="4.18"></circle><rect id="Rectangle" fill="#6ADFFC" fill-rule="nonzero" transform="translate(99.924000, 85.872600) rotate(180.000000) translate(-99.924000, -85.872600) " x="80.212" y="43.6172" width="39.424" height="84.5108"></rect><path d="M114.444,53.504 C112.232652,53.504 110.44,51.7113481 110.44,49.5 C110.447466,49.1903077 110.476873,48.8815341 110.528,48.576 L89.012,48.576 C89.0989797,48.8763146 89.1434124,49.1873437 89.144,49.5 C89.144,51.7113481 87.3513481,53.504 85.14,53.504 L84.832,53.504 L84.832,118.008 L85.14,118.008 C87.3513481,118.008 89.144,119.800652 89.144,122.012 C89.1536813,122.386384 89.0940103,122.759327 88.968,123.112 L110.572,123.112 C110.482288,122.752275 110.437944,122.382737 110.44,122.012 C110.44,120.950073 110.861849,119.93164 111.612744,119.180744 C112.36364,118.429849 113.382073,118.008 114.444,118.008 L115.016,118.096 L115.016,53.416 L114.444,53.504 Z" id="Path" fill="#C0F2FF" fill-rule="nonzero"></path><rect id="Rectangle" fill="#05C2F0" fill-rule="nonzero" transform="translate(69.784000, 85.872600) rotate(180.000000) translate(-69.784000, -85.872600) " x="59.356" y="43.6172" width="20.856" height="84.5108"></rect><rect id="Rectangle" fill="url(#linearGradient-4)" fill-rule="nonzero" x="59.092" y="70.84" width="21.164" height="30.8792"></rect><rect id="Rectangle" fill="url(#linearGradient-5)" fill-rule="nonzero" x="80.212" y="70.84" width="39.468" height="30.888"></rect><circle id="Oval" fill="#6ADFFC" fill-rule="nonzero" cx="99.88" cy="63.624" r="4.18"></circle><circle id="Oval" fill="#6ADFFC" fill-rule="nonzero" cx="99.88" cy="109.34" r="4.18"></circle><path d="M66.704,70.224 C66.704,59.972 95.964,51.788 95.964,25.872 C95.92,25.96 29.436,25.96 29.348,25.872 C29.348,51.788 58.608,59.972 58.608,70.224 C58.608,80.476 29.92,89.232 29.92,115.324 L95.436,115.324 C95.436,89.232 66.704,80.696 66.704,70.224 Z" id="Path" fill="#C3DFF4" fill-rule="nonzero" opacity="0.9"></path><path d="M70.796,83.468 C68.904,80.3 65.164,88.44 53.9,93.544 C50.512,95.084 47.124,96.448 39.908,98.428 L38.764,100.144 L73.92,103.708 L70.796,83.468 Z" id="Path" fill="#3E5A7D" fill-rule="nonzero"></path><path d="M89.892,115.104 C89.848,108.196 87.78,100.188 81.708,93.5 L70.796,83.468 C71.324,87.516 69.652,90.992 66.792,94.028 C66.7676995,94.028 66.748,94.0476995 66.748,94.072 C66.6698571,94.107275 66.607275,94.1698571 66.572,94.248 C61.292,99.528 53.548,99.088 47.564,99.484 C38.324,99.748 39.952,98.428 39.952,98.428 C39.952,98.428 36.916,99.396 35.288,107.712 C34.7510051,110.167152 34.5292171,112.68075 34.628,115.192 L35.332,115.192 L35.332,115.412 L89.892,115.104 Z" id="Path" fill="#6C8AAD" fill-rule="nonzero"></path><path d="M52.976,57.948 C53.856,53.988 66.924,49.588 72.248,51.92 C72.8461303,52.1767478 73.2338411,52.7650935 73.2338411,53.416 C73.2338411,54.0669065 72.8461303,54.6552522 72.248,54.912 L66.528,57.684 L52.976,57.948 Z" id="Path" fill="#3E5A7D" fill-rule="nonzero"></path><path d="M99.528,22.792 L25.476,23.276 C25.2234092,23.288042 24.9769203,23.1960347 24.7939998,23.0214288 C24.6110793,22.8468228 24.5077131,22.6048775 24.508,22.352 L24.508,14.828 C24.5077131,14.5751225 24.6110793,14.3331772 24.7939998,14.1585712 C24.9769203,13.9839653 25.2234092,13.891958 25.476,13.904 L99.528,13.42 C99.7805908,13.407958 100.02708,13.4999653 100.21,13.6745712 C100.392921,13.8491772 100.496287,14.0911225 100.496,14.344 L100.584,21.868 C100.573063,22.1330082 100.453865,22.3819204 100.254256,22.5565781 C100.054647,22.7312357 99.7921148,22.8163378 99.528,22.792 Z" id="Path" fill="#3E5A7D" fill-rule="nonzero"></path><path d="M74.712,92.884 L75.196,93.5 L75.636,94.116 L76.076,94.732 L76.472,95.348 L76.868,95.964 L77.044,96.316 C77.572,97.152 79.332,96.932 78.848,96.228 L78.54,95.788 L78.012,95.172 C77.8645014,94.9561638 77.7028113,94.7503763 77.528,94.556 L77,93.984 L76.472,93.412 L75.944,92.84 L75.372,92.312 C75.372,92.312 72.116,89.1 71.676,89.452 C71.236,89.804 74.756,92.972 74.756,92.972 L74.712,92.884 Z" id="Path" fill="#FFFFFF" fill-rule="nonzero" opacity="0.6"></path><path d="M83.072,104.104 C82.8934051,103.594738 82.6877798,103.095362 82.456,102.608 C82.2727631,102.108118 82.0521392,101.622745 81.796,101.156 C81.576,100.628 81.092,99.836 81.004,99.616 C80.916,99.396 80.828,99.396 80.608,99.396 L79.244,99.396 C79.096872,99.3984215 78.9606935,99.4742294 78.8811221,99.5980071 C78.8015508,99.7217847 78.7891209,99.8771454 78.848,100.012 L79.112,100.672 C79.288,101.112 79.42,101.596 79.596,102.036 L79.992,103.488 C80.1351514,103.950499 80.2526635,104.420547 80.344,104.896 C80.476,105.38 80.564,105.864 80.652,106.348 C80.74,106.832 80.784,107.316 80.872,107.8 L81.004,109.252 C81.092,110.22 81.136,111.188 81.136,112.156 C81.18,112.64 81.136,113.124 81.136,113.608 L81.136,115.06 C81.1435915,115.282356 81.1730672,115.503423 81.224,115.72 C81.4376045,116.571664 82.1558638,117.202331 83.028,117.304 C83.6793869,117.384255 84.3325896,117.169494 84.8092649,116.718355 C85.2859401,116.267216 85.536304,115.626815 85.492,114.972 L85.404,114.18 L85.404,113.388 C85.316,112.86 85.272,112.332 85.184,111.804 C85.096,111.276 84.832,109.692 84.568,108.636 L84.172,107.096 C84.04,106.568 83.864,106.04 83.732,105.556 L83.072,104.104 Z" id="Path" fill="#FFFFFF" fill-rule="nonzero" opacity="0.6"></path><path d="M97.372,22.792 L97.372,23.628 C97.3722221,24.9232358 96.3350137,25.9800142 95.04,26.004 L30.052,26.4 C29.4335151,26.4 28.8403618,26.1543078 28.403027,25.716973 C27.9656922,25.2796382 27.72,24.6864849 27.72,24.068 L27.72,23.232 L97.372,22.792 Z" id="Path" fill="#3E5A7D" fill-rule="nonzero"></path><path d="M60.5,65.428 C59.224,63.096 52.976,57.948 52.976,57.948 C54.956,54.252 73.216,54.78 73.172,53.108 C73.172,53.108 74.36,55.352 64.416,63.492 C63.1463366,64.5472121 62.3150088,66.037328 62.084,67.672 C62.0246512,67.8525648 61.8560682,67.97461 61.666,67.97461 C61.4759318,67.97461 61.3073488,67.8525648 61.248,67.672 C61.1124008,66.8907743 60.860256,66.1343401 60.5,65.428 Z" id="Path" fill="#6C8AAD" fill-rule="nonzero"></path><rect id="Rectangle" fill="#3E5A7D" fill-rule="nonzero" x="24.068" y="117.964" width="75.988" height="10.1728" rx="0.968"></rect><path d="M96.888,117.964 L96.888,117.128 C96.888,115.840072 95.843928,114.796 94.556,114.796 L29.568,114.796 C28.2729863,114.819986 27.2357779,115.876764 27.236,117.172 L27.236,118.008 L96.888,117.964 Z" id="Path" fill="#3E5A7D" fill-rule="nonzero"></path><path d="M27.72,23.232 L27.72,24.068 C27.7211811,24.3373757 27.7657521,24.6048021 27.852,24.86 L97.196,24.464 C97.2965246,24.2110742 97.355942,23.9436961 97.372,23.672 L97.372,22.836 L27.72,23.232 Z" id="Path" fill="#203658" fill-rule="nonzero"></path><path d="M96.888,117.964 L96.888,117.48 C96.888,117.392 96.844,117.26 96.844,117.172 L27.28,117.172 C27.2471566,117.271238 27.2322571,117.375535 27.236,117.48 L27.2354357,118.008 L96.888,117.964 Z" id="Path" fill="#203658" fill-rule="nonzero"></path><circle id="Oval" fill="url(#linearGradient-6)" fill-rule="nonzero" cx="149.248" cy="17.644" r="17.424"></circle><circle id="Oval" stroke="#FFFFFF" stroke-width="1.32" stroke-linecap="round" stroke-linejoin="round" cx="149.6" cy="17.6" r="8.756"></circle><polyline id="Path" stroke="#FFFFFF" stroke-width="1.32" stroke-linecap="round" stroke-linejoin="round" points="154.572 17.6 149.6 17.6 149.6 12.628"></polyline><polygon id="Path" fill="#C0F2FF" fill-rule="nonzero" style="mix-blend-mode: multiply;" points="167.112 88.66 119.68 96.668 119.68 88.66"></polygon></g></g></g></svg> 