<?xml version="1.0" encoding="UTF-8"?> <svg xmlns="http://www.w3.org/2000/svg" xmlns:xlink="http://www.w3.org/1999/xlink" width="45px" height="45px" viewBox="0 0 45 45" version="1.1"><!-- Generator: Sketch 52.6 (67491) - http://www.bohemiancoding.com/sketch --><title>Group 32</title><desc>Created with Sketch.</desc><g id="Final-Homepage-+-Styles" stroke="none" stroke-width="1" fill="none" fill-rule="evenodd"><g id="Homepage-2.0" transform="translate(-1035.000000, -3032.000000)"><g id="Group-13" transform="translate(1035.000000, 3032.000000)"><g id="Group-14"><g id="Group-24"><g id="Group-32"><circle id="Oval-Copy-2" fill="#FFFFFF" cx="22.325" cy="22.325" r="22.325"></circle><path d="M22.918143,30.2432385 C27.2855524,23.9117514 28.0962225,23.2619413 28.0962225,20.9350183 C28.0962225,17.7476408 25.5123637,15.1637821 22.3249862,15.1637821 C19.1376087,15.1637821 16.55375,17.7476408 16.55375,20.9350183 C16.55375,23.2619413 17.3644201,23.9117514 21.7318588,30.2432385 C22.0184422,30.6572184 22.631501,30.6572771 22.918143,30.2432385 Z M22.3249862,29.4094374 C18.1379868,23.3543771 17.5156227,22.8736169 17.5156227,20.9350183 C17.5156227,19.6503688 18.015874,18.4426561 18.9242637,17.5342958 C19.832624,16.6259061 21.0403367,16.1256548 22.3249862,16.1256548 C23.6096358,16.1256548 24.8173485,16.6259061 25.7257088,17.5342958 C26.6340985,18.4426561 27.1343498,19.6503688 27.1343498,20.9350183 C27.1343498,22.8734995 26.5123673,23.3538194 22.3249862,29.4094374 Z" id="m" fill="#768DAD" fill-rule="nonzero"></path></g></g></g></g></g></g></svg> 